<svg width="515" height="163" viewBox="0 0 515 163" fill="none" xmlns="http://www.w3.org/2000/svg">
<path d="M285.612 163V122.619H188.107V91.5952L289.552 0H320.576V87.6556H342.243V122.619H320.576V163H285.612ZM244.246 87.6556H285.612V54.1692L244.246 87.6556Z" fill="#24282B"/>
<path d="M260.001 72.3901V121.635H210.756V87.656H229.961V106.369H241.288V72.3901H260.001Z" fill="#81E91C"/>
<path d="M321.069 41.8574V91.1021H302.356V57.1233H290.537V75.8363H271.824V41.8574H321.069Z" fill="#81E91C"/>
<path d="M321.066 102.921H302.354V121.634H321.066V102.921Z" fill="#81E91C"/>
<path d="M229.469 41.8569H210.756V60.5699H229.469V41.8569Z" fill="#81E91C"/>
<path d="M255.074 51.2139L259.998 46.2895V41.8574H256.059L250.642 46.7819L245.717 41.8574H241.285V46.2895L246.702 51.2139L241.285 56.1384V60.5704H245.717L250.642 55.646L256.059 60.5704H259.998V56.1384L255.074 51.2139Z" fill="#81E91C"/>
<path d="M285.613 97.0117L290.537 91.5948V87.6553H286.105L281.181 92.5797L276.256 87.6553H271.824V91.5948L276.749 97.0117L271.824 101.936V106.368H276.256L281.181 101.444L286.105 106.368H290.537V101.936L285.613 97.0117Z" fill="#81E91C"/>
<path d="M0 106.37V56.6328H8.86405V76.8231H41.3655V56.6328H50.2296V106.37H41.3655V86.1796H8.86405V106.37H0Z" fill="white"/>
<path d="M67.9642 106.37C65.5019 106.37 63.0397 105.385 61.0699 103.415C59.1001 101.445 58.1152 99.4754 58.1152 96.5207V81.2549H89.6318V77.3153C89.6318 75.8379 89.6318 75.3455 89.6318 75.3455C89.6318 75.3455 88.6469 75.3455 87.662 75.3455H58.6077V66.4814H89.6318C92.0941 66.4814 94.5563 67.4663 96.5261 69.4361C98.4959 71.4059 99.4808 73.3757 99.4808 76.3304V106.862H67.9642V106.37ZM69.934 97.5056H90.1243V90.1189H67.4717V95.0434C67.4717 96.5207 67.4717 97.0132 67.4717 97.0132C67.9642 97.0132 68.4566 97.5056 69.934 97.5056Z" fill="white"/>
<path d="M114.742 106.371C112.279 106.371 109.817 105.386 107.847 103.416C105.878 101.446 104.893 99.4764 104.893 96.5217V75.3465C104.893 72.8843 105.878 70.422 107.847 68.4522C109.817 66.4824 111.787 65.4976 114.742 65.4976H145.766V74.3616H116.711C115.234 74.3616 114.742 74.3616 114.742 74.3616C114.742 74.3616 114.742 75.3465 114.742 76.3314V93.567C114.742 95.0444 114.742 95.5368 114.742 95.5368C114.742 95.5368 115.726 95.5368 116.711 95.5368H145.766V104.401H114.742V106.371Z" fill="white"/>
<path d="M152.17 106.37V53.1855H161.034V81.7475H167.928L182.209 66.4816H192.058V68.9438L176.3 86.6719L192.058 104.4V106.862H182.702L168.421 91.5964H161.526V106.862H152.17V106.37Z" fill="white"/>
<path d="M339.787 106.368V56.6304H349.636L380.168 93.0715V56.6304H389.524V106.368H379.675L349.144 69.9264V106.368H339.787Z" fill="white"/>
<path d="M396.912 106.368V56.6304H405.776V106.368H396.912Z" fill="white"/>
<path d="M429.903 106.368V65.9869H409.713V56.6304H459.45V65.9869H439.26V106.368H429.903Z" fill="white"/>
<path d="M464.381 106.368V56.6304H504.269C506.731 56.6304 509.194 57.6153 511.163 59.585C513.133 61.5548 514.118 63.5246 514.118 66.4793V79.7754C514.118 82.2376 513.133 84.6999 511.163 86.6696C509.194 88.6394 507.224 89.6243 504.269 89.6243H473.245V106.368H464.381ZM475.707 80.2679H502.299C503.777 80.2679 504.269 80.2679 504.269 80.2679C504.269 80.2679 504.762 79.2829 504.762 78.2981V68.9416C504.762 67.4642 504.762 66.9718 504.269 66.9718C504.269 66.9718 503.284 66.9718 502.299 66.9718H475.707C474.23 66.9718 473.737 66.9718 473.737 66.9718C473.737 66.9718 473.737 67.9567 473.737 68.9416V78.2981C473.737 79.7754 473.737 80.2679 473.737 80.2679C473.737 80.2679 474.722 80.2679 475.707 80.2679Z" fill="white"/>
</svg>
