<svg width="631" height="624" viewBox="0 0 631 624" fill="none" xmlns="http://www.w3.org/2000/svg">
<path d="M603.426 443.192C598.303 455.595 592.081 467.516 584.836 478.812C581.836 477.872 582.256 475.262 582.236 473.082C582.106 462.552 582.236 452.012 582.156 441.482C582.086 433.802 582.316 426.132 582.766 418.482C585.125 409.206 586.899 399.79 588.076 390.292C589.546 379.672 590.076 369.002 590.556 358.292C591.196 345.122 590.026 332.132 588.926 319.082C587.826 306.032 585.056 293.362 582.596 280.612C581.696 239.912 582.416 199.212 582.236 158.512C582.236 155.952 581.366 152.972 584.236 151.132C591.679 162.712 598.1 174.918 603.426 187.612C604.146 191.612 603.226 195.562 603.226 199.552C603.266 277.019 603.266 354.492 603.226 431.972C603.226 435.742 603.966 439.462 603.426 443.192Z" fill="#8F3493"/>
<path d="M57.4163 221.612C61.8961 212.696 67.0757 204.149 72.9063 196.052C75.1863 197.262 74.9063 199.492 74.9063 201.502C75.0063 209.752 74.9663 218.002 74.9063 226.252C74.8596 252.565 74.8363 278.872 74.8363 305.172C74.8363 369.112 74.9563 433.052 74.9063 497.002C74.9954 498.669 74.9553 500.341 74.7863 502.002C74.5763 503.292 74.7863 505.002 72.7863 505.212C66.6862 497.318 61.5029 488.756 57.3363 479.692C56.973 477.008 56.8193 474.3 56.8763 471.592C56.8763 390.572 56.8763 309.552 56.8763 228.532C56.931 226.217 57.1113 223.907 57.4163 221.612Z" fill="#992F69"/>
<path d="M603.426 443.192C602.449 440.699 601.963 438.04 601.996 435.362C601.996 355.662 601.996 275.962 601.996 196.262C602.016 193.321 602.498 190.402 603.426 187.612C608.666 198.102 612.206 209.242 615.896 220.322C617.326 224.602 618.436 228.982 619.686 233.322C619.376 282.272 619.576 331.232 619.516 380.182C619.516 386.182 620.336 392.182 619.686 398.242C615.928 411.798 611.312 425.101 605.866 438.072C605.126 439.832 604.236 441.492 603.426 443.192Z" fill="#902E91"/>
<path d="M360.336 407.712C360.846 411.462 361.836 415.222 361.746 418.952C361.56 424.142 360.981 429.31 360.016 434.412C359.11 439.487 357.874 444.498 356.316 449.412C355.676 451.412 356.246 451.842 357.736 452.832C373.736 463.432 389.506 474.252 405.546 484.722C408.226 486.472 407.636 487.852 406.466 489.602C390.786 513.062 375.073 536.502 359.326 559.922C358.256 561.502 357.206 562.302 354.956 560.782C336.776 548.542 318.466 536.492 300.206 524.372C297.866 522.822 297.276 521.372 299.206 518.552C312.206 499.372 324.946 479.992 337.896 460.762C338.453 460.036 338.783 459.162 338.845 458.25C338.907 457.337 338.699 456.427 338.246 455.632C333.305 445.422 331.017 434.131 331.596 422.802C331.766 419.482 332.896 416.392 333.196 413.132C334.196 412.132 335.106 412.672 336.046 413.182C336.381 413.42 336.644 413.745 336.806 414.122C336.806 419.122 335.386 424.012 335.746 429.122C336.291 437.081 338.185 444.888 341.346 452.212C343.346 451.432 343.776 449.832 344.626 448.622C346.106 446.512 347.626 445.052 350.346 446.742C351.726 447.602 352.516 446.852 352.906 445.522C356.236 434.192 358.436 422.742 356.306 410.882C355.386 407.312 353.986 404.042 350.716 401.952C349.193 400.851 347.375 400.231 345.496 400.172C343.496 399.952 341.496 399.652 341.916 396.822C342.123 396.311 342.477 395.872 342.932 395.56C343.388 395.249 343.925 395.079 344.476 395.072C346.564 394.896 348.663 395.211 350.606 395.992C352.511 396.884 354.295 398.013 355.916 399.352C357.661 401.4 359.075 403.708 360.106 406.192C360.262 406.684 360.34 407.197 360.336 407.712Z" fill="#662D90"/>
<path d="M57.4165 221.612C58.3565 223.122 58.2265 224.812 58.2265 226.492V474.832C58.2265 476.512 58.3565 478.192 57.4165 479.712C51.3365 470.302 47.1165 460.032 43.4765 449.502C43.1283 446.558 42.9746 443.595 43.0165 440.632C43.0165 380.412 43.0165 320.195 43.0165 259.982C43.0165 257.562 43.6965 255.112 42.8965 252.692C47.1165 242.052 51.5965 231.532 57.4165 221.612Z" fill="#9B2866"/>
<path d="M164.347 214.612C164.347 208.292 164.257 201.972 164.347 195.612C164.507 186.792 168.047 179.272 173.547 172.532C176.377 169.062 179.807 167.962 184.727 170.032C179.947 164.562 178.447 159.192 181.247 152.912C182.867 149.272 187.127 145.732 190.697 145.762C193.897 145.762 199.407 149.622 200.417 152.872C202.337 159.062 202.067 164.782 196.777 169.552C193.777 172.252 190.537 172.182 186.827 171.652C190.827 176.382 193.117 182.822 200.947 183.052C204.667 183.172 208.327 184.562 212.037 185.232C214.287 185.632 216.387 186.232 216.927 188.722C217.527 191.482 215.627 192.882 213.427 193.932L210.587 195.272C215.217 195.122 219.017 196.422 223.017 196.192C224.937 196.082 225.757 195.372 226.257 193.762C228.587 186.212 230.977 178.662 233.257 171.082C233.767 169.372 234.157 169.032 236.127 169.552C246.257 172.182 243.897 171.462 241.697 179.162C239.217 187.852 236.177 196.382 233.497 205.012C233.037 206.472 232.867 207.502 231.117 206.302C230.747 206.052 230.117 206.192 229.597 206.172C220.367 205.912 211.127 205.482 201.897 205.492C198.407 205.492 197.117 204.342 197.667 201.042C198.327 197.122 196.947 195.402 192.817 196.042C190.027 196.492 187.757 195.952 186.187 192.942C185.117 190.882 182.927 189.412 180.997 187.442C179.177 192.962 178.937 198.232 178.997 203.822C181.237 203.822 183.907 203.822 186.587 203.822C193.587 203.722 192.917 205.362 193.687 210.232C194.837 217.582 194.687 225.052 194.567 232.492C194.529 235.02 193.945 237.51 192.857 239.792C190.687 244.452 187.947 245.592 183.067 244.102C181.487 242.732 181.827 240.862 181.807 239.102C181.807 232.612 181.807 226.102 181.807 219.612C181.807 218.322 182.407 216.702 180.617 215.962C179.107 215.742 177.617 215.812 176.087 215.742C174.777 215.742 173.457 215.792 172.147 215.742C170.587 215.742 169.037 215.802 167.477 215.742C166.267 215.732 165.127 215.612 164.347 214.612Z" fill="#662D90"/>
<path d="M378.027 289.102C375.367 294.502 372.627 299.862 370.027 305.312C368.507 308.542 366.387 309.312 363.277 307.662C361.037 306.492 358.637 305.562 356.527 304.202C354.267 302.752 353.037 303.062 351.947 305.552C350.377 309.142 348.557 312.612 346.767 316.102C344.767 320.012 341.697 321.642 338.087 320.822C335.357 320.192 332.927 316.362 333.197 312.582C333.647 306.352 336.757 301.122 339.917 295.962C340.652 294.947 341.231 293.828 341.637 292.642C333.477 289.942 325.417 287.132 317.257 284.692C314.987 284.012 314.537 282.972 314.547 280.932C314.607 270.092 314.607 259.248 314.547 248.402C314.547 246.552 314.827 245.712 317.017 245.642C324.657 245.412 324.657 245.302 324.657 252.892C324.657 259.602 324.817 266.322 324.567 273.022C324.477 275.682 325.337 276.732 327.787 277.482C337.397 280.482 346.927 283.642 356.507 286.712C358.157 287.242 360.267 287.252 358.817 289.982C358.667 290.252 359.097 290.842 359.257 291.292C359.697 291.092 360.357 291.012 360.547 290.672C362.349 287.353 363.519 283.728 363.997 279.982C364.237 278.282 361.837 278.782 361.287 279.132C353.647 283.892 347.637 279.132 341.227 276.052C337.627 274.302 334.227 272.422 331.617 269.352C330.177 267.672 328.477 266.032 329.677 263.662C330.877 261.292 333.587 261.662 335.557 262.082C339.857 262.995 344.07 264.284 348.147 265.932C353.907 268.342 358.827 266.162 363.957 263.992C355.367 259.102 353.067 255.112 354.957 248.532C356.087 244.612 361.857 240.782 366.197 241.062C370.917 241.362 375.807 245.192 376.517 249.122C377.707 255.832 375.117 260.712 368.737 263.282C375.417 264.182 376.307 269.572 377.967 274.342C379.034 276.654 379.591 279.169 379.602 281.715C379.612 284.262 379.075 286.781 378.027 289.102Z" fill="#662D90"/>
<path d="M480.387 353.502C500.157 353.262 516.387 368.192 516.937 388.172C517.217 399.312 512.767 407.922 505.807 415.912C499.181 423.257 494.925 432.43 493.597 442.232C493.397 443.852 492.287 445.342 492.897 447.072C492.465 447.483 491.949 447.794 491.384 447.984C490.819 448.175 490.219 448.238 489.627 448.172C487 448.359 484.361 448.295 481.747 447.982C481.372 447.921 481.014 447.784 480.695 447.577C480.376 447.37 480.105 447.1 479.897 446.782C479.037 445.092 479.157 443.262 479.157 441.472C479.157 414.139 479.157 386.779 479.157 359.392C479.147 357.362 478.797 355.212 480.387 353.502Z" fill="#F0592A"/>
<path d="M584.216 151.122C583.216 152.762 583.416 154.592 583.416 156.382C583.416 196.215 583.416 236.042 583.416 275.862C583.416 277.442 584.096 279.242 582.596 280.602C579.936 271.852 577.476 263.042 574.596 254.382C571.396 244.822 567.336 235.592 563.246 226.382C562.873 222.28 562.739 218.16 562.846 214.042C562.846 186.102 562.846 158.162 562.846 130.222C562.846 127.782 562.086 124.952 564.846 123.222C570.596 129.302 574.746 136.612 579.496 143.392C581.216 145.862 582.656 148.542 584.216 151.122Z" fill="#8D3B96"/>
<path d="M72.8662 505.232C74.2962 504.002 73.6962 502.332 73.6962 500.862C73.6962 401.008 73.6962 301.158 73.6962 201.312C73.6962 199.522 73.9162 197.692 72.8862 196.052C76.8862 190.552 80.4862 184.742 85.2362 179.822C87.9562 180.702 87.2362 183.082 87.2862 184.942C87.4062 195.215 87.4062 205.492 87.2862 215.772C87.2062 226.032 87.7162 236.312 86.8662 246.562C85.2862 253.032 83.6762 259.492 82.1262 265.972C79.6355 276.794 77.8021 287.758 76.6362 298.802C75.2322 311.018 74.8142 323.328 75.3862 335.612C76.1662 352.032 77.9262 368.392 82.1162 384.372C81.4762 386.932 81.9662 389.512 81.9662 392.072C81.9662 431.072 81.9662 470.012 81.8862 508.992C81.8862 511.182 82.9662 513.992 79.8862 515.292C77.4462 511.992 74.6462 508.962 72.8662 505.232Z" fill="#97356B"/>
<path d="M498.177 136.612C494.087 135.102 491.887 131.252 488.677 128.612C483.597 124.482 478.437 120.432 473.417 116.212C472.512 114.792 472.078 113.123 472.177 111.442C472.177 90.4419 472.127 69.4419 472.177 48.5019C472.177 46.6119 472.047 44.5019 474.177 43.4419C482.995 47.9628 491.303 53.4174 498.957 59.7119C499.483 60.6182 499.697 61.6721 499.567 62.7119C499.217 85.2519 499.567 107.802 499.387 130.352C499.427 132.472 499.887 134.762 498.177 136.612Z" fill="#8553A2"/>
<path d="M42.8666 252.692C44.4266 253.522 44.2866 254.982 44.2866 256.412C44.2866 319.532 44.2866 382.655 44.2866 445.782C44.3398 447.072 44.0573 448.354 43.4666 449.502C39.8866 442.732 38.2366 435.262 35.8566 428.072C34.4166 423.712 32.9466 419.262 32.5766 414.602C31.6866 375.832 32.4366 337.062 32.1366 298.282C32.1366 294.412 32.8066 290.592 32.5666 286.722C34.6241 276.802 37.487 267.067 41.1266 257.612C41.7266 256.002 42.2866 254.342 42.8666 252.692Z" fill="#9D2365"/>
<path d="M323.916 0.301758C333.756 0.801758 343.596 1.20175 353.356 2.62175C354.776 4.08175 354.586 5.96176 354.586 7.74176C354.626 24.4084 354.626 41.0484 354.586 57.6618C354.586 59.4418 354.776 61.3218 353.356 62.7818C345.466 61.5918 337.586 60.3718 329.686 59.2418C327.786 58.9718 325.846 59.0117 323.916 58.9017C322.536 57.4317 322.686 55.5718 322.676 53.7818C322.676 37.6618 322.676 21.5384 322.676 5.41176C322.686 3.61176 322.496 1.75176 323.916 0.301758Z" fill="#7473B5"/>
<path d="M498.176 136.612C498.176 113.139 498.176 89.672 498.176 66.212C498.125 64.029 498.405 61.8509 499.006 59.752C504.746 62.592 509.406 66.932 514.256 70.972C516.186 72.582 518.686 73.632 519.936 75.972C520.266 77.2148 520.428 78.4962 520.416 79.782C520.326 103.832 520.416 127.872 520.316 151.922C520.316 153.862 521.176 156.432 518.316 157.422L498.176 136.612Z" fill="#874D9E"/>
<path d="M353.356 62.7818V2.61182C360.966 3.22182 368.426 4.78181 375.936 6.03181C376.936 6.19181 377.936 6.33181 378.936 6.48181C380.096 8.02181 380.186 9.82182 380.186 11.6418C380.186 29.0485 380.186 46.4518 380.186 63.8518C380.186 65.6318 380.376 67.5018 378.956 68.9618L353.356 62.7818Z" fill="#786DB0"/>
<path d="M99.2465 537.812C93.8065 533.332 89.8665 527.492 85.2465 522.272C84.8832 518.811 84.7496 515.33 84.8464 511.852C84.8464 478.845 84.8464 445.845 84.8464 412.852C84.8464 409.682 84.4364 406.342 86.8464 403.682C90.4364 412.902 93.5764 422.302 97.6564 431.332C98.7364 433.742 99.7764 436.172 100.836 438.592C101.236 442.816 101.367 447.061 101.226 451.302C101.226 477.969 101.226 504.635 101.226 531.302C101.266 533.542 101.906 536.222 99.2465 537.812Z" fill="#953A6E"/>
<path d="M564.856 123.242C563.856 124.872 564.046 126.702 564.046 128.502C564.046 159.675 564.046 190.849 564.046 222.022C564.046 223.492 564.656 225.152 563.216 226.382L549.316 200.082C548.961 197.407 548.811 194.709 548.866 192.012C548.866 165.392 548.866 138.762 548.936 112.132C548.936 110.082 547.876 107.342 550.936 106.242C556.084 111.473 560.743 117.164 564.856 123.242Z" fill="#8B4098"/>
<path d="M619.686 398.272C619.216 393.852 618.336 389.432 618.326 385.012C618.226 338.625 618.226 292.232 618.326 245.832C618.326 241.662 619.216 237.512 619.686 233.352C622.395 242.784 624.496 252.381 625.976 262.082C628.036 275.383 629.421 288.781 630.126 302.222C630.916 315.692 630.016 328.982 629.186 342.352C628.076 360.082 624.736 377.402 620.596 394.612L619.686 398.272Z" fill="#91298F"/>
<path d="M518.267 157.442C519.697 156.222 519.087 154.552 519.097 153.092C519.097 129.139 519.097 105.192 519.097 81.2519C519.097 79.4619 518.887 77.6319 519.917 75.9919C525.57 80.0591 530.761 84.7336 535.397 89.9319C536.357 91.7787 536.786 93.8557 536.637 95.9319C536.637 121.092 536.637 146.255 536.637 171.422C536.637 173.642 537.147 176.192 534.637 177.642C531.047 173.292 527.277 169.072 523.947 164.532C522.097 162.072 519.287 160.462 518.267 157.442Z" fill="#89499C"/>
<path d="M474.226 43.452C473.226 45.092 473.416 46.9121 473.416 48.7121V116.222L453.306 102.282C452.874 100.926 452.698 99.5022 452.786 98.082C452.786 78.222 452.786 58.352 452.786 38.482C452.786 36.482 452.406 34.3021 454.036 32.6021L464.086 37.222L474.226 43.452Z" fill="#8259A5"/>
<path d="M129.526 484.972C133.636 489.592 137.926 494.072 141.766 498.902C143.526 501.102 145.856 502.722 147.346 505.112C147.701 506.483 147.863 507.896 147.826 509.312C147.746 530.152 147.826 551.002 147.766 571.852C147.766 573.982 148.216 576.282 146.506 578.092C140.156 573.602 133.446 569.602 127.866 564.092C127.532 562.847 127.391 561.559 127.446 560.272C127.446 537.362 127.446 514.462 127.506 491.552C127.506 489.232 126.866 486.552 129.526 484.972Z" fill="#8E4977"/>
<path d="M146.507 578.092V510.372C146.507 508.582 146.287 506.742 147.317 505.112L166.687 522.922C167.042 524.292 167.2 525.707 167.157 527.122C167.087 545.902 167.157 564.692 167.097 583.472C167.097 585.602 167.547 587.892 165.837 589.712C159.136 586.284 152.677 582.401 146.507 578.092Z" fill="#8A4E7A"/>
<path d="M534.597 177.612C535.597 175.972 535.407 174.142 535.407 172.352V89.9219C541.016 94.9326 546.213 100.387 550.947 106.232C549.517 107.462 550.127 109.122 550.117 110.582C550.117 138.662 550.117 166.742 550.117 194.822C550.117 196.612 550.327 198.442 549.297 200.072L534.597 177.612Z" fill="#8A449A"/>
<path d="M223.987 13.2118C229.837 12.3818 235.287 10.0318 241.037 8.82178C242.457 10.2818 242.267 12.1518 242.267 13.9318C242.307 28.5118 242.307 43.0884 242.267 57.6618C242.267 59.4418 242.457 61.3218 241.037 62.7818L222.037 67.5318L216.217 68.9718C214.417 68.0518 214.297 66.3218 214.287 64.6418C214.177 49.9318 214.207 35.2318 214.287 20.5218C214.207 19.8078 214.273 19.0851 214.481 18.3975C214.689 17.7099 215.034 17.0717 215.497 16.5218L223.987 13.2118Z" fill="#6486C3"/>
<path d="M165.867 589.712V528.192C165.867 526.392 165.647 524.562 166.687 522.922C173.633 528.162 180.59 533.395 187.557 538.622C188.055 539.538 188.254 540.587 188.127 541.622C187.907 559.242 188.127 576.862 188.007 594.482C188.007 596.482 188.367 598.642 186.777 600.352C179.757 596.942 172.647 593.662 165.867 589.712Z" fill="#86547F"/>
<path d="M99.2466 537.812C100.247 536.172 100.057 534.342 100.057 532.552C100.057 502.659 100.057 472.772 100.057 442.892C100.057 441.422 99.4465 439.762 100.887 438.542L114.827 464.102C115.057 465.632 115.197 467.175 115.247 468.722C115.247 494.412 115.247 520.102 115.157 545.782C115.157 547.842 116.237 550.592 113.157 551.702C108.303 547.289 103.667 542.659 99.2466 537.812Z" fill="#933F70"/>
<path d="M378.917 68.9719V6.49194C385.207 8.00194 391.496 9.49193 397.786 11.0419C398.476 11.2807 399.145 11.575 399.786 11.9219C401.176 13.3819 401.016 15.2419 401.026 17.0219C401.026 34.3553 401.026 51.7086 401.026 69.0819C401.026 71.3519 401.256 73.8019 399.026 75.3919L378.917 68.9719Z" fill="#7A69AE"/>
<path d="M241.037 62.7818V8.78183L264.277 4.13184C265.697 5.59184 265.507 7.46184 265.507 9.24184C265.547 24.3218 265.547 39.4018 265.507 54.4818C265.507 56.3018 265.407 58.1018 264.257 59.6418C257.328 60.1301 250.448 61.1532 243.677 62.7018C242.802 62.8224 241.917 62.8492 241.037 62.7818Z" fill="#6882C0"/>
<path d="M399.026 75.3919C399.628 73.2998 399.908 71.1282 399.856 68.9519C399.81 49.9452 399.81 30.9452 399.856 11.9519C406.715 13.4708 413.441 15.5409 419.966 18.1419C420.398 19.4976 420.575 20.9218 420.486 22.3419C420.486 40.9119 420.486 59.4919 420.486 78.0719C420.486 80.0719 420.876 82.2519 419.236 83.9419L399.026 75.3919Z" fill="#7D64AB"/>
<path d="M113.146 551.702C114.576 550.472 113.967 548.812 113.977 547.342C113.977 521.055 113.993 494.759 114.026 468.452C114.026 466.992 113.417 465.322 114.857 464.102L129.526 484.972C128.526 486.602 128.716 488.432 128.716 490.222C128.716 513.402 128.716 536.575 128.716 559.742C128.716 561.212 129.316 562.872 127.896 564.102C125.306 563.852 124.237 561.442 122.547 560.102C119.297 557.412 115.646 555.172 113.146 551.702Z" fill="#914473"/>
<path d="M323.916 0.30191V58.9019L302.226 57.3519C301.006 56.1419 301.016 54.5519 301.016 53.0219C300.946 36.5319 301.016 20.0219 300.966 3.5619C300.982 2.66081 301.12 1.76604 301.376 0.901901C303.466 -0.638099 305.846 0.271909 308.066 0.221909C313.346 0.101909 318.596 0.25191 323.916 0.30191Z" fill="#7177B8"/>
<path d="M419.166 83.9118V22.9818C419.166 21.3318 418.906 19.6218 419.906 18.1118C426.028 19.9813 431.996 22.3216 437.756 25.1118C438.251 26.029 438.45 27.077 438.326 28.1118C438.096 47.7918 438.326 67.4818 438.206 87.1618C438.206 89.1618 438.596 91.3318 436.986 93.0318L419.166 83.9118Z" fill="#7F60A9"/>
<path d="M437.016 92.982C437.016 72.242 437.016 51.5054 437.016 30.772C436.98 28.8449 437.25 26.9243 437.817 25.082C443.437 27.182 449.006 29.372 454.106 32.602C454.106 54.2087 454.106 75.812 454.106 97.412C454.106 99.062 454.367 100.772 453.367 102.282L437.016 92.982Z" fill="#815DA7"/>
<path d="M301.377 0.901994C302.807 2.13199 302.197 3.792 302.207 5.252C302.247 22.6253 302.247 39.992 302.207 57.352C297.867 57.352 293.517 57.482 289.207 57.472C287.066 57.3855 284.924 57.6078 282.847 58.132C280.847 57.132 280.907 55.202 280.897 53.412C280.817 37.672 280.837 21.932 280.897 6.202C280.897 4.652 280.897 3.072 282.117 1.842C288.517 1.552 294.917 0.551994 301.377 0.901994Z" fill="#6E7BBB"/>
<path d="M215.476 16.6118C215.476 32.4518 215.476 48.2951 215.476 64.1418C215.476 65.8018 215.216 67.5118 216.216 69.0218L195.336 76.0218C194.106 74.8118 194.136 73.2318 194.126 71.7018C194.056 56.8018 194.126 41.9018 194.126 27.0018C194.059 26.0986 194.235 25.1939 194.636 24.3818C201.322 21.1401 208.3 18.5385 215.476 16.6118Z" fill="#608AC7"/>
<path d="M178.286 82.9218L158.176 92.4318C157.006 91.3618 156.966 89.9218 156.956 88.5118C156.846 74.0118 156.956 59.5118 156.896 44.9918C156.944 44.2226 157.079 43.4611 157.297 42.7218C163.712 38.5804 170.446 34.9557 177.436 31.8818C179.656 32.1818 179.436 34.0418 179.436 35.4318C179.606 50.0618 179.576 64.6918 179.436 79.3218C179.437 80.6123 179.035 81.8707 178.286 82.9218Z" fill="#5890CB"/>
<path d="M186.806 600.332C186.806 581.665 186.806 562.998 186.806 544.332C186.768 542.395 187.034 540.465 187.596 538.612L204.666 549.242C205.192 550.148 205.403 551.203 205.266 552.242C204.926 568.332 205.266 584.432 205.096 600.522C205.096 602.662 205.546 604.952 203.836 606.772C197.816 605.512 192.486 602.452 186.806 600.332Z" fill="#825983"/>
<path d="M282.087 1.8418C282.087 18.9818 282.087 36.1185 282.087 53.2518C282.087 54.9118 281.817 56.6218 282.827 58.1318C276.608 58.1478 270.401 58.6661 264.267 59.6818V4.1718L282.087 1.8418Z" fill="#6B7EBD"/>
<path d="M17.0463 265.052C7.19794 297.328 2.93991 331.051 4.45627 364.762C1.99627 363.012 3.14628 360.162 2.71628 358.032C1.58628 352.312 1.51626 346.392 0.886259 340.572C-0.383741 328.772 0.0362561 316.932 0.196256 305.112C0.543042 290.354 2.02413 275.644 4.62631 261.112C6.99955 247.688 10.1583 234.416 14.0863 221.362C14.2673 220.919 14.4952 220.497 14.7663 220.102C17.3363 220.872 16.7663 223.102 16.7663 224.852C16.8263 237.242 16.9063 249.632 16.7663 262.012C16.5773 263.032 16.6742 264.084 17.0463 265.052Z" fill="#26A9E0"/>
<path d="M582.766 418.462C583.856 419.682 583.386 421.162 583.386 422.522C583.426 439.495 583.426 456.462 583.386 473.422C583.386 475.352 583.226 477.312 584.816 478.812C580.126 487.562 574.276 495.542 568.406 503.502C567.216 505.122 565.916 506.662 564.666 508.242C562.296 507.242 562.906 505.112 562.876 503.352C562.696 494.422 563.036 485.482 562.606 476.552C570.779 458.809 577.351 440.373 582.246 421.462C582.47 420.471 582.644 419.47 582.766 418.462Z" fill="#8D3B96"/>
<path d="M298.357 623.612C291.867 624.272 285.437 623.262 278.987 622.832C277.567 621.372 277.767 619.502 277.757 617.722C277.717 605.462 277.717 593.205 277.757 580.952C277.757 579.182 277.547 577.292 278.987 575.842L298.357 578.172C299.777 579.632 299.587 581.502 299.587 583.282C299.627 595.022 299.627 606.758 299.587 618.492C299.597 620.232 299.777 622.112 298.357 623.612Z" fill="#697098"/>
<path d="M553.167 405.952C553.977 399.552 556.647 393.642 558.007 387.352C560.117 377.612 562.057 367.882 563.357 357.982C565.186 344.168 565.915 330.231 565.537 316.302C565.337 309.452 564.537 302.622 564.327 295.792C574.499 343.815 571.412 393.7 555.397 440.102C552.507 439.572 552.867 437.192 552.817 435.252C552.667 428.672 552.817 422.092 552.717 415.512C552.597 412.302 552.107 409.102 553.167 405.952Z" fill="#00ABEB"/>
<path d="M203.826 606.752C203.826 589.752 203.826 572.752 203.826 555.752C203.77 553.569 204.05 551.39 204.656 549.292C209.776 551.292 214.496 553.982 219.346 556.482C220.506 558.022 220.586 559.812 220.586 561.632C220.586 576.432 220.586 591.232 220.586 606.032C220.586 608.212 220.586 610.472 218.586 612.032C213.536 610.552 208.436 609.342 203.826 606.752Z" fill="#7F5E86"/>
<path d="M178.287 82.9218C178.287 67.3518 178.287 51.7918 178.287 36.2318C178.287 34.7618 178.887 33.1118 177.457 31.8818C183.057 29.0818 188.597 26.1718 194.607 24.3018C195.607 25.8118 195.347 27.5218 195.347 29.1818C195.347 44.7684 195.347 60.3551 195.347 75.9418L178.287 82.9218Z" fill="#5C8DC9"/>
<path d="M278.986 575.802V622.802C272.986 622.962 267.126 621.652 261.176 621.252C259.796 619.792 259.936 617.932 259.936 616.152C259.896 603.032 259.896 589.915 259.936 576.802C259.936 575.032 259.746 573.152 261.196 571.722C267.191 572.781 273.129 574.143 278.986 575.802Z" fill="#6E6C94"/>
<path d="M157.297 42.7219C158.727 43.9419 158.117 45.6019 158.127 47.0619C158.177 62.1819 158.127 77.3119 158.177 92.4319C154.287 95.6119 149.497 97.3119 145.407 100.192C144.297 100.972 143.067 101.592 141.887 102.282C140.037 100.822 139.947 98.7019 139.887 96.6519C139.767 83.4919 139.827 70.3319 139.887 57.1719C139.89 55.6198 140.3 54.0958 141.077 52.7519C146.19 48.9566 151.616 45.6012 157.297 42.7219Z" fill="#5494CE"/>
<path d="M106.987 79.0919C112.019 73.7306 117.735 69.0539 123.987 65.1819C126.167 65.5219 125.987 67.3519 125.987 68.7619C126.157 82.6019 126.127 96.4519 125.987 110.302C125.951 111.593 125.537 112.844 124.797 113.902L108.607 126.462C106.807 126.332 106.677 124.842 106.677 123.662C106.667 108.802 106.067 93.9419 106.987 79.0919Z" fill="#4C99D2"/>
<path d="M86.9264 246.612C85.9864 245.102 86.1064 243.422 86.1064 241.742C86.1064 222.575 86.1064 203.405 86.1064 184.232C86.1064 182.762 86.7064 181.102 85.2764 179.872C89.2064 173.872 94.4164 168.872 99.2764 163.612C101.656 164.032 101.276 166.052 101.276 167.552C101.276 182.272 101.796 196.992 100.976 211.712C95.8164 223.122 91.3964 234.852 86.9264 246.612Z" fill="#953A6E"/>
<path d="M124.846 113.902C124.846 99.1153 124.846 84.3286 124.846 69.5419C124.846 68.0719 125.446 66.412 124.026 65.182C129.136 60.242 135.136 56.512 141.106 52.752C141.106 65.832 141.106 78.9153 141.106 92.002C141.106 95.442 140.886 98.912 141.876 102.282L124.846 113.902Z" fill="#5096D0"/>
<path d="M298.356 623.612V578.132C304.266 578.992 310.236 578.652 316.176 578.902C317.596 580.362 317.396 582.232 317.406 584.022C317.446 595.242 317.446 606.462 317.406 617.682C317.406 619.462 317.596 621.332 316.176 622.792C310.226 622.852 304.336 624.352 298.356 623.612Z" fill="#62749C"/>
<path d="M64.3964 124.782C66.4564 120.722 69.7664 117.592 72.5464 114.082C74.8764 111.132 77.4064 108.332 79.8464 105.462C81.6464 105.612 81.7664 107.102 81.7764 108.292C81.8664 122.872 82.3464 137.452 81.5464 152.022C80.5464 155.582 77.0664 157.022 75.0964 159.892C72.2064 164.022 68.5564 167.612 65.2364 171.432C63.2964 169.862 63.2364 167.612 63.2364 165.432C63.1264 153.482 63.2364 141.532 63.2364 129.582C63.2029 127.909 63.6025 126.255 64.3964 124.782Z" fill="#3B9FD8"/>
<path d="M32.5966 286.722C33.9666 287.812 33.4366 289.342 33.4366 290.722C33.4366 330.722 33.4366 370.702 33.4366 410.662C33.4366 412.012 33.9566 413.542 32.6066 414.662C30.1766 407.912 29.2666 400.802 28.1366 393.792C25.4047 376.601 24.3431 359.187 24.9666 341.792C25.324 331.377 26.2923 320.993 27.8666 310.692C28.949 302.612 30.5287 294.607 32.5966 286.722Z" fill="#9E1F63"/>
<path d="M246.476 618.922L232.476 615.822C231.216 614.162 231.236 612.212 231.236 610.272C231.236 596.342 231.236 582.412 231.236 568.472C231.236 566.382 230.746 563.972 233.236 562.632C238.013 564.057 242.69 565.797 247.236 567.842C248.15 569.106 248.573 570.659 248.426 572.212C248.426 586.212 248.486 600.212 248.426 614.212C248.426 616.012 248.446 617.912 246.476 618.922Z" fill="#78658D"/>
<path d="M64.3964 124.782C64.3964 136.502 64.3964 148.225 64.3964 159.952C64.3964 163.802 64.2364 167.652 65.2164 171.432C61.1364 177.432 57.0564 183.398 52.9764 189.332C52.1264 190.572 51.2164 191.772 50.3364 192.992C48.6364 192.652 48.5964 191.202 48.5764 189.992C48.4064 176.402 48.3264 162.812 48.5764 149.222C48.5764 148.332 49.1064 147.502 49.0064 146.582C53.3678 138.802 58.5255 131.496 64.3964 124.782Z" fill="#37A2DA"/>
<path d="M233.267 562.612C232.267 564.122 232.517 565.832 232.517 567.492C232.517 583.592 232.517 599.695 232.517 615.802L218.597 611.952C219.168 610.114 219.438 608.196 219.397 606.272C219.357 589.659 219.357 573.049 219.397 556.442L233.267 562.612Z" fill="#7B6189"/>
<path d="M316.176 622.792V578.902H332.436C333.766 580.242 333.656 581.972 333.666 583.632C333.706 594.592 333.706 605.555 333.666 616.522C333.666 618.182 333.766 619.912 332.436 621.242C327.065 622.182 321.628 622.7 316.176 622.792Z" fill="#5C77A1"/>
<path d="M246.477 618.922C247.477 617.422 247.227 615.712 247.227 614.062C247.227 598.648 247.227 583.242 247.227 567.842C252.047 568.482 256.527 570.372 261.157 571.712V621.242L246.477 618.922Z" fill="#74678F"/>
<path d="M86.9265 403.612C85.2365 416.942 86.2664 430.332 86.1664 443.702C85.9864 468.432 86.1664 493.162 86.0864 517.892C86.0864 519.362 86.6964 521.022 85.2564 522.252L79.8364 515.252C81.3364 513.882 80.6564 512.092 80.6564 510.502C80.6964 470.662 80.6964 430.819 80.6564 390.972C80.6564 388.642 80.6564 386.352 82.0964 384.332C83.7098 390.785 85.3198 397.212 86.9265 403.612Z" fill="#97356C"/>
<path d="M460.986 420.842C455.586 414.102 448.986 408.182 446.826 399.292C443.886 387.292 445.686 376.292 453.596 366.482C455.757 363.891 458.264 361.609 461.046 359.702C463.116 360.702 462.986 362.622 463.046 364.372C463.126 381.639 463.126 398.905 463.046 416.172C462.976 417.942 462.986 419.862 460.986 420.842Z" fill="#F6931D"/>
<path d="M49.0562 146.612C50.1562 147.832 49.6862 149.322 49.6862 150.682C49.6862 163.442 49.6862 176.192 49.6862 188.942C49.6862 190.312 49.2162 191.802 50.3162 193.012L35.7962 217.912C34.3362 216.482 34.5362 214.602 34.5262 212.822C34.5262 200.722 34.5262 188.612 34.5262 176.512C34.5713 174.193 34.99 171.897 35.7662 169.712C39.4999 161.632 43.9476 153.901 49.0562 146.612Z" fill="#33A5DC"/>
<path d="M106.987 79.0918C107.987 80.6018 107.807 82.2818 107.807 83.9518C107.807 96.8051 107.807 109.655 107.807 122.502C107.807 123.852 107.286 125.372 108.636 126.502L94.6865 138.902C93.0465 138.902 92.8265 137.532 92.8165 136.462C92.6665 121.552 92.0765 106.642 93.0865 91.7318C98.0365 87.8218 101.447 82.2918 106.987 79.0918Z" fill="#449BD4"/>
<path d="M463.317 531.432L481.137 516.712C482.757 517.712 483.047 519.422 483.137 521.102C483.327 529.972 483.237 538.842 483.137 547.722C483.076 549.13 482.675 550.503 481.967 551.722C476.317 556.942 470.757 562.272 464.207 566.392C462.007 566.062 462.207 564.222 462.207 562.812C462.027 553.682 462.097 544.562 462.147 535.432C462.199 534.022 462.602 532.648 463.317 531.432Z" fill="#0097CC"/>
<path d="M93.1062 91.6919C94.0462 93.0819 93.8562 94.6919 93.8562 96.1919C93.8562 109.092 93.8562 121.989 93.8562 134.882C93.8562 136.232 93.3362 137.762 94.6762 138.882C90.5095 143.482 86.1228 147.869 81.5162 152.042C80.1662 150.952 80.6862 149.422 80.6862 148.042C80.6862 135.172 80.6862 122.302 80.6862 109.422C80.6862 108.072 81.2062 106.552 79.8662 105.422L93.1062 91.6919Z" fill="#3F9DD6"/>
<path d="M100.917 211.662C99.5566 210.572 100.087 209.042 100.077 207.662C100.077 194.272 100.077 180.882 100.077 167.482C100.077 166.142 100.587 164.612 99.2466 163.482C103.507 159.135 107.763 154.782 112.017 150.422C112.534 149.859 113.253 149.521 114.017 149.482C114.465 149.947 114.806 150.506 115.016 151.117C115.225 151.729 115.297 152.379 115.227 153.022C115.297 163.672 115.377 174.332 115.227 185.022C115.293 185.663 115.171 186.309 114.877 186.882L100.917 211.662Z" fill="#933F70"/>
<path d="M481.966 551.752C481.966 542.222 481.916 532.692 481.966 523.172C482.022 520.989 481.742 518.81 481.136 516.712C485.676 512.342 490.236 508.002 494.736 503.592C495.976 502.382 497.026 500.992 498.166 499.682C499.706 500.352 500.066 501.762 500.076 503.182C500.136 513.412 500.576 523.652 499.836 533.882C494.096 540.062 488.14 546.019 481.966 551.752Z" fill="#009BD2"/>
<path d="M553.167 405.952C554.337 416.202 553.927 426.502 553.967 436.782C553.967 438.112 554.027 439.372 555.397 440.102C551.007 452.312 546.267 464.372 539.907 475.732C537.357 475.462 537.367 473.392 537.377 471.732C537.377 461.992 536.727 452.232 537.837 442.512C543.787 430.612 548.307 418.232 553.167 405.952Z" fill="#00A8E5"/>
<path d="M127.936 326.902C126.26 327.735 124.36 328.008 122.516 327.682C121.096 326.222 121.276 324.352 121.276 322.572C121.276 288.879 121.276 255.212 121.276 221.572C121.276 219.782 121.136 217.922 122.516 216.452L127.936 215.682C129.366 217.132 129.186 219.012 129.186 220.792C129.186 254.472 129.186 288.155 129.186 321.842C129.186 323.612 129.366 325.452 127.936 326.902Z" fill="#CB4932"/>
<path d="M164.346 214.612L167.456 214.862C168.876 216.322 168.686 218.192 168.686 219.982C168.726 248.242 168.726 276.502 168.686 304.762C168.686 306.542 168.866 308.422 167.436 309.872H161.246C159.826 308.412 160.006 306.532 160.006 304.752C160.006 276.492 160.006 248.232 160.006 219.972C160.006 218.182 159.826 216.312 161.246 214.852L164.346 214.612Z" fill="#E98C3A"/>
<path d="M332.437 621.242V578.902L346.437 577.352C347.757 578.692 347.647 580.422 347.657 582.082C347.71 592.749 347.71 603.452 347.657 614.192C347.657 615.852 347.757 617.582 346.437 618.922C341.877 620.532 337.137 620.752 332.437 621.242Z" fill="#547BA5"/>
<path d="M35.7364 169.712L35.7964 217.912L24.9964 241.912C22.5964 241.472 22.9964 239.442 22.9964 237.912C23.0464 224.242 22.4864 210.562 23.2964 196.912C24.7764 190.962 27.7464 185.632 30.2964 180.152C31.9664 176.612 33.4664 172.942 35.7364 169.712Z" fill="#2EA6DD"/>
<path d="M537.836 442.472C538.926 443.692 538.456 445.182 538.466 446.542C538.466 454.912 538.466 463.272 538.466 471.642C538.466 473.162 538.146 474.802 539.886 475.732C535.274 485.641 529.616 495.027 523.006 503.732C522.659 503.439 522.38 503.073 522.192 502.66C522.003 502.246 521.909 501.796 521.916 501.342C521.816 490.722 521.256 480.092 522.166 469.472C527.596 460.612 533.006 451.702 537.836 442.472Z" fill="#00A5DF"/>
<path d="M431.597 588.162C427.117 591.542 421.987 593.712 416.877 595.912C415.517 594.602 415.637 592.912 415.627 591.222C415.567 581.975 415.567 572.725 415.627 563.472C415.627 561.812 415.627 560.102 416.867 558.762C421.707 556.252 426.437 553.532 431.547 551.572C432.917 552.882 432.797 554.572 432.807 556.282C432.867 565.282 432.857 574.352 432.807 583.382C432.827 585.072 432.767 586.752 431.597 588.162Z" fill="#158DBC"/>
<path d="M562.596 476.552C564.026 477.942 564.036 479.722 564.026 481.552C564.026 489.102 564.026 496.662 564.026 504.212C564.026 505.572 563.556 507.052 564.646 508.212C558.993 515.888 552.836 523.181 546.216 530.042C545.966 529.752 545.586 529.522 545.536 529.132C544.645 522.163 544.591 515.113 545.376 508.132C547.426 503.272 550.686 499.132 553.126 494.462C556.306 488.508 559.463 482.538 562.596 476.552Z" fill="#8B4098"/>
<path d="M366.486 574.812C370.795 573.46 375.197 572.424 379.656 571.712C380.836 572.772 380.866 574.222 380.886 575.632C381.016 586.542 380.886 597.462 380.986 608.372C380.999 609.146 380.831 609.913 380.496 610.612C375.926 612.202 371.416 614.002 366.496 614.502C365.126 613.182 365.246 611.442 365.236 609.782C365.19 599.722 365.19 589.655 365.236 579.582C365.286 577.902 365.326 576.212 366.486 574.812Z" fill="#4382AD"/>
<path d="M110.896 329.232C109.276 329.052 107.946 330.602 106.246 330.012C104.826 328.552 105.016 326.672 105.006 324.892C105.006 291.212 105.006 257.545 105.006 223.892C105.006 222.112 104.826 220.232 106.246 218.772C107.866 218.942 109.246 217.412 110.896 218.002C112.326 219.462 112.146 221.332 112.146 223.112C112.146 256.805 112.146 290.488 112.146 324.162C112.146 325.902 112.326 327.772 110.896 329.232Z" fill="#C0262E"/>
<path d="M131.036 215.612C135.676 214.052 135.676 214.052 135.686 218.752C135.686 231.065 135.686 243.375 135.686 255.682C136.355 256.478 136.742 257.473 136.786 258.512C136.986 264.939 136.986 271.372 136.786 277.812C136.741 278.851 136.354 279.845 135.686 280.642C135.686 294.232 135.486 307.832 135.746 321.422C135.826 325.232 134.746 326.962 130.996 326.902C129.576 325.442 129.756 323.562 129.756 321.782C129.756 288.102 129.756 254.419 129.756 220.732C129.796 218.962 129.596 217.082 131.036 215.612Z" fill="#D05633"/>
<path d="M378.026 289.102V274.342C378.066 260.549 378.103 246.755 378.136 232.962C378.136 227.732 378.136 227.732 383.556 228.022C384.986 229.472 384.806 231.352 384.806 233.132C384.806 261.392 384.806 289.655 384.806 317.922C384.806 319.702 384.986 321.582 383.556 323.032C378.136 323.322 378.146 323.322 378.136 318.102C378.11 308.442 378.073 298.775 378.026 289.102Z" fill="#BF232E"/>
<path d="M435.456 228.022H440.876C442.306 229.482 442.126 231.352 442.126 233.132C442.126 261.392 442.126 289.655 442.126 317.922C442.126 319.702 442.306 321.572 440.876 323.032H435.456C434.036 321.572 434.226 319.702 434.216 317.922C434.216 289.662 434.216 261.399 434.216 233.132C434.226 231.352 434.036 229.482 435.456 228.022Z" fill="#EE973C"/>
<path d="M395.177 228.022H400.597C401.497 230.285 401.929 232.707 401.867 235.142C401.867 245.912 401.867 256.672 401.867 267.442C401.867 269.322 402.167 271.332 400.667 272.902C400.667 287.962 400.667 303.022 400.667 318.082C400.667 323.322 400.667 323.322 395.247 323.032C393.827 321.572 394.017 319.702 394.007 317.922C394.007 289.662 394.007 261.399 394.007 233.132C393.947 231.352 393.757 229.482 395.177 228.022Z" fill="#CA4831"/>
<path d="M114.806 186.922C113.806 184.202 114.006 181.362 113.996 178.542V149.542C118.206 144.432 123.626 140.682 128.746 136.602C129.088 136.9 129.36 137.27 129.543 137.684C129.726 138.099 129.816 138.549 129.806 139.002C129.906 148.002 130.386 157.002 129.556 166.002C124.636 172.982 119.72 179.955 114.806 186.922Z" fill="#914473"/>
<path d="M499.836 533.882C498.486 532.802 499.006 531.282 498.996 529.932C498.996 521.472 498.996 513.002 498.996 504.532C498.996 502.872 499.106 501.192 498.176 499.682L512.176 483.412C513.346 484.472 513.366 485.922 513.406 487.332C513.616 496.582 513.156 505.842 513.686 515.092C513.701 515.997 513.469 516.889 513.016 517.672C511.276 521.462 508.016 524.162 505.686 527.502C503.871 529.748 501.917 531.879 499.836 533.882Z" fill="#009FD7"/>
<path d="M129.527 166.002C128.597 164.502 128.707 162.832 128.717 161.172C128.717 152.992 128.717 144.809 128.717 136.622C134.567 132.312 139.937 127.312 146.507 124.002C146.853 124.292 147.129 124.657 147.314 125.07C147.499 125.482 147.589 125.93 147.577 126.382C147.687 132.622 148.177 138.862 147.347 145.092L129.527 166.002Z" fill="#8E4977"/>
<path d="M380.496 610.612C379.556 609.102 379.686 607.412 379.686 605.742C379.686 594.408 379.686 583.075 379.686 571.742L391.336 568.092C392.666 569.412 392.556 571.092 392.566 572.792C392.62 582.545 392.62 592.292 392.566 602.032C392.566 603.712 392.566 605.392 391.356 606.782C387.948 608.594 384.287 609.885 380.496 610.612Z" fill="#3885B1"/>
<path d="M463.316 531.432C463.316 541.782 463.316 552.132 463.366 562.432C463.366 563.772 462.856 565.292 464.206 566.372C460.436 569.958 456.262 573.092 451.766 575.712C449.906 574.842 449.766 573.082 449.766 571.422C449.636 562.262 449.676 553.102 449.766 543.942C449.826 542.532 450.231 541.159 450.946 539.942L463.316 531.432Z" fill="#0094C6"/>
<path d="M346.386 618.922V577.352L357.196 576.352C358.566 577.672 358.446 579.412 358.456 581.062C358.516 591.389 358.516 601.722 358.456 612.062C358.456 613.752 358.406 615.442 357.246 616.842C353.749 618.07 350.089 618.771 346.386 618.922Z" fill="#4D7EA8"/>
<path d="M444.756 228.022C448.396 227.152 449.516 228.412 449.486 232.272C449.326 261.112 449.326 289.949 449.486 318.782C449.486 322.642 448.396 323.902 444.756 323.032C443.336 321.572 443.516 319.702 443.516 317.922C443.516 289.662 443.516 261.399 443.516 233.132C443.516 231.352 443.336 229.482 444.756 228.022Z" fill="#F7A93F"/>
<path d="M435.456 228.022V323.022H430.806C429.386 321.562 429.576 319.692 429.576 317.912C429.536 289.652 429.536 261.388 429.576 233.122C429.576 231.342 429.386 229.472 430.806 228.012L435.456 228.022Z" fill="#E98D3A"/>
<path d="M383.597 323.032V228.032H388.247C389.677 229.492 389.487 231.362 389.497 233.142C389.497 261.402 389.497 289.665 389.497 317.932C389.497 319.712 389.677 321.582 388.247 323.042L383.597 323.032Z" fill="#C22E2F"/>
<path d="M167.437 309.862C167.437 278.195 167.437 246.528 167.437 214.862H172.077C173.497 216.322 173.317 218.202 173.317 219.982C173.317 248.242 173.317 276.502 173.317 304.762C173.317 306.542 173.497 308.422 172.077 309.882L167.437 309.862Z" fill="#EE973C"/>
<path d="M175.977 214.852H180.597C181.967 216.192 181.747 217.932 181.747 219.592C181.747 248.099 181.747 276.612 181.747 305.132C181.747 306.792 181.967 308.532 180.597 309.862H175.947C174.527 308.402 174.707 306.522 174.707 304.742C174.707 276.482 174.707 248.219 174.707 219.952C174.727 218.182 174.597 216.312 175.977 214.852Z" fill="#F7A83F"/>
<path d="M23.2864 196.872C24.6464 197.962 24.1164 199.492 24.1264 200.872C24.1264 213.232 24.1264 225.592 24.1264 237.942C24.1264 239.292 23.6064 240.822 24.9564 241.942L17.0063 265.122C15.1163 264.122 15.5964 262.272 15.5964 260.662C15.5964 248.482 15.5964 236.302 15.5964 224.122C15.5964 222.782 16.1063 221.262 14.7563 220.172C16.802 212.136 19.6601 204.329 23.2864 196.872Z" fill="#2AA7DF"/>
<path d="M460.986 420.842C461.681 419.454 461.965 417.896 461.806 416.352C461.806 398.845 461.806 381.329 461.806 363.802C461.979 362.39 461.714 360.959 461.046 359.702C463.046 358.492 464.886 357.082 467.226 356.602C469.136 357.832 469.226 359.842 469.226 361.762C469.32 383.129 469.32 404.502 469.226 425.882C469.226 427.882 469.626 430.502 466.416 430.882C464.583 427.529 462.773 424.182 460.986 420.842Z" fill="#F58D1F"/>
<path d="M110.896 329.232V217.952L114.746 217.732C116.206 219.172 116.017 221.052 116.017 222.832C116.057 256.392 116.057 289.952 116.017 323.512C116.017 325.322 116.017 327.152 114.797 328.672C113.667 329.992 112.216 329.172 110.896 329.232Z" fill="#C22F2F"/>
<path d="M122.516 216.402V327.682C121.186 327.732 120.116 329.102 118.646 328.462C117.226 327.002 117.406 325.122 117.406 323.342C117.406 289.662 117.406 255.979 117.406 222.292C117.406 220.512 117.226 218.632 118.646 217.172L122.516 216.402Z" fill="#C74131"/>
<path d="M118.647 217.172V328.462L114.807 328.672L114.747 217.732C115.887 216.402 117.327 217.252 118.647 217.172Z" fill="#C43630"/>
<path d="M431.597 588.162V551.612L443.247 544.862C444.597 546.182 444.467 547.862 444.477 549.552C444.523 558.532 444.523 567.508 444.477 576.482C444.477 578.162 444.407 579.832 443.267 581.222C439.706 584.049 435.781 586.383 431.597 588.162Z" fill="#0C90C1"/>
<path d="M545.417 508.202C546.967 515.442 545.907 522.782 546.257 530.072C539.257 537.202 532.697 544.882 524.617 550.932C522.807 550.852 522.797 549.372 522.737 548.212C522.587 544.942 522.237 541.662 522.957 538.412C530.347 529.182 537.437 519.732 543.957 509.832C544.398 509.25 544.887 508.705 545.417 508.202Z" fill="#89479B"/>
<path d="M161.246 214.852V309.852C157.686 310.672 156.356 309.572 156.496 305.642C156.796 297.302 156.546 288.942 156.496 280.582C155.936 272.302 155.936 263.993 156.496 255.712C156.496 243.492 156.716 231.262 156.496 219.052C156.416 215.152 157.666 214.012 161.246 214.852Z" fill="#E58439"/>
<path d="M512.956 517.672C511.216 506.282 512.596 494.822 512.116 483.412C515.449 478.745 518.806 474.099 522.186 469.472C523.496 473.222 522.936 477.112 522.976 480.942C523.046 488.542 522.976 496.132 523.026 503.732C520.373 508.848 516.98 513.545 512.956 517.672Z" fill="#00A2DB"/>
<path d="M357.256 616.822L357.196 576.352C360.198 575.377 363.33 574.858 366.486 574.812L366.546 614.502C363.577 615.716 360.448 616.497 357.256 616.822Z" fill="#4880AA"/>
<path d="M175.976 214.852C175.976 246.525 175.976 278.192 175.976 309.852H172.106V214.852H175.976Z" fill="#F29E3E"/>
<path d="M444.756 228.022V323.022H440.876V228.022H444.756Z" fill="#F3A03E"/>
<path d="M388.207 323.032V228.032H392.077C393.507 229.492 393.327 231.362 393.327 233.142C393.327 261.402 393.327 289.665 393.327 317.932C393.327 319.712 393.507 321.582 392.077 323.042L388.207 323.032Z" fill="#C43530"/>
<path d="M147.346 145.092C145.736 141.382 146.766 137.472 146.566 133.652C146.396 130.442 146.516 127.222 146.506 124.002C151.951 119.635 157.937 115.992 164.316 113.162C165.826 114.102 166.116 115.642 166.176 117.162C166.438 120.764 166.375 124.382 165.986 127.972L147.346 145.092Z" fill="#8A4E7A"/>
<path d="M106.246 218.722V330.012C104.116 330.472 103.086 330.102 103.086 327.422C103.186 292.049 103.186 256.679 103.086 221.312C103.086 218.612 104.116 218.262 106.246 218.722Z" fill="#BF1F2E"/>
<path d="M131.037 215.612V326.912H127.937V215.612H131.037Z" fill="#CD5032"/>
<path d="M258.077 337.232C259.727 338.052 261.717 338.312 262.757 340.112C263.188 340.757 263.487 341.481 263.637 342.242C264.197 351.086 264.197 359.957 263.637 368.802C263.493 369.434 263.19 370.019 262.757 370.502C262.535 370.924 262.232 371.298 261.864 371.602C261.497 371.905 261.073 372.133 260.617 372.272L262.717 373.642C263.887 375.172 263.967 376.972 263.967 378.782C263.967 387.142 263.967 395.502 263.967 403.862C264.121 405.669 263.682 407.477 262.717 409.012C261.257 410.012 260.107 411.532 258.077 411.342C256.627 409.882 256.847 408.002 256.837 406.222C256.797 384.935 256.797 363.642 256.837 342.342C256.847 340.612 256.597 338.682 258.077 337.232Z" fill="#EB913B"/>
<path d="M430.806 228.022V323.022H427.716C426.796 321.767 426.36 320.223 426.486 318.672C426.486 306.992 426.416 295.302 426.486 283.622C426.486 282.222 426.486 280.772 427.666 279.692C426.116 263.632 427.366 247.532 426.846 231.462C426.766 228.202 427.886 227.342 430.806 228.022Z" fill="#E58539"/>
<path d="M391.336 606.752V568.062L399.826 565.512C401.196 566.822 401.086 568.572 401.096 570.222C401.15 579.769 401.15 589.319 401.096 598.872C401.096 600.562 401.026 602.252 399.876 603.652C397.126 604.972 394.426 606.392 391.336 606.752Z" fill="#2F87B3"/>
<path d="M399.856 603.612L399.796 565.472C402.282 564.231 404.898 563.272 407.596 562.612C409.376 563.722 409.526 565.612 409.596 567.352C409.716 576.832 409.676 586.352 409.596 595.782C409.694 597.213 409.275 598.632 408.416 599.782C405.828 601.583 402.924 602.882 399.856 603.612Z" fill="#2789B6"/>
<path d="M408.377 599.782C408.377 589.282 408.327 578.782 408.377 568.282C408.423 566.362 408.16 564.448 407.597 562.612C410.539 560.969 413.659 559.667 416.897 558.732C416.897 571.112 416.897 583.495 416.897 595.882C414.197 597.502 411.597 599.372 408.377 599.782Z" fill="#1E8BB9"/>
<path d="M422.256 313.952C419.785 310.056 417.711 305.922 416.066 301.612C415.171 298.932 414.748 296.117 414.816 293.292C414.876 283.782 414.816 274.292 414.896 264.772C414.896 262.912 414.236 260.532 416.956 259.662C419.392 263.571 421.451 267.703 423.106 272.002C423.999 274.693 424.415 277.518 424.336 280.352C424.286 289.622 424.336 298.902 424.276 308.172C424.266 310.232 424.676 312.612 422.256 313.952Z" fill="#DC7337"/>
<path d="M359.677 406.782L355.677 399.932C354.756 398.23 354.333 396.303 354.457 394.372C354.457 377.039 354.457 359.689 354.457 342.322C354.457 340.552 354.257 338.682 355.687 337.232C357.649 337.829 359.321 339.133 360.377 340.892C361.334 342.74 361.759 344.817 361.607 346.892C361.607 364.952 361.607 383.022 361.547 401.082C361.517 403.062 362.337 405.552 359.677 406.782Z" fill="#E98C3A"/>
<path d="M255.016 412.332C253.966 413.532 252.246 412.752 251.106 413.662C250.698 413.246 250.385 412.746 250.189 412.197C249.994 411.648 249.922 411.062 249.976 410.482C250.106 403.942 249.556 397.392 250.276 390.852C250.576 388.142 249.796 385.502 249.806 382.792C249.886 368.792 249.806 354.792 249.866 340.792C249.866 338.792 249.496 336.632 251.096 334.932C252.566 334.322 253.646 335.632 254.976 335.702C256.226 337.362 256.236 339.292 256.236 341.232C256.236 363.105 256.236 384.969 256.236 406.822C256.226 408.722 256.346 410.692 255.016 412.332Z" fill="#E38139"/>
<path d="M392.076 323.032V228.032H395.176V323.032H392.076Z" fill="#C73F31"/>
<path d="M330.866 412.332C330.147 412.36 329.43 412.237 328.761 411.97C328.093 411.703 327.488 411.298 326.986 410.782C326.1 409.2 325.671 407.403 325.746 405.592C325.746 384.585 325.746 363.585 325.746 342.592C325.746 340.902 325.816 339.222 326.966 337.822C327.646 335.972 329.646 336.572 330.866 335.722C332.316 337.162 332.106 339.042 332.106 340.812C332.146 362.972 332.146 385.125 332.106 407.272C332.126 409.012 332.326 410.892 330.866 412.332Z" fill="#CB4B32"/>
<path d="M355.667 337.232V399.932L351.027 396.832C349.777 395.322 349.777 393.492 349.817 391.692C350.187 374.462 349.677 357.232 349.817 340.012C349.817 338.232 349.637 336.362 351.057 334.912L355.667 337.232Z" fill="#E48239"/>
<path d="M480.386 353.502C480.386 384.695 480.386 415.885 480.386 447.072C480.153 447.303 479.875 447.483 479.569 447.602C479.263 447.72 478.936 447.774 478.609 447.76C478.281 447.745 477.96 447.664 477.665 447.52C477.37 447.376 477.109 447.172 476.896 446.922C475.836 445.162 476.036 443.192 476.036 441.282C476.036 414.235 476.036 387.192 476.036 360.152C476.036 358.152 475.686 355.982 477.286 354.272C477.689 353.881 478.188 353.603 478.732 353.468C479.277 353.333 479.848 353.344 480.386 353.502Z" fill="#F26928"/>
<path d="M470.286 355.612C471.417 354.766 472.785 354.297 474.196 354.272C475.616 355.732 475.426 357.612 475.426 359.392C475.466 386.979 475.466 414.569 475.426 442.162C475.426 443.832 475.486 445.532 474.496 447.032C474.016 447.493 473.384 447.762 472.72 447.79C472.055 447.817 471.403 447.601 470.886 447.182C469.826 443.312 469.886 439.332 469.836 435.362C469.716 409.772 470.016 384.172 469.676 358.572C469.553 357.545 469.767 356.506 470.286 355.612Z" fill="#F48223"/>
<path d="M474.196 447.082V354.272H477.296V447.072C477.099 447.287 476.86 447.458 476.594 447.576C476.327 447.693 476.04 447.754 475.748 447.755C475.457 447.756 475.169 447.697 474.902 447.581C474.635 447.465 474.395 447.295 474.196 447.082Z" fill="#F37626"/>
<path d="M330.866 412.332V335.692C331.269 335.301 331.767 335.022 332.311 334.885C332.856 334.749 333.427 334.758 333.966 334.912C335.486 336.472 335.076 338.472 335.166 340.342C335.466 346.682 334.646 353.052 335.516 359.342C336.016 363.432 335.116 367.472 335.046 371.552C335.029 378.957 335.641 386.35 336.876 393.652C336.506 398.652 336.876 403.592 336.696 408.552C336.646 410.312 336.916 412.172 335.526 413.622L333.186 413.092C332.446 412.792 331.356 413.442 330.866 412.332Z" fill="#CE5432"/>
<path d="M443.236 581.182V544.822L450.946 539.952C450.946 550.259 450.946 560.569 450.946 570.882C450.946 572.562 450.826 574.242 451.766 575.762C448.996 577.682 446.426 579.922 443.236 581.182Z" fill="#0692C3"/>
<path d="M470.286 355.612C470.893 357.706 471.173 359.882 471.116 362.062C471.076 390.402 471.076 418.735 471.116 447.062C470.895 447.272 470.601 447.39 470.296 447.39C469.991 447.39 469.697 447.272 469.476 447.062C469.966 441.372 467.406 436.262 466.386 430.862C468.216 430.082 468.016 428.452 468.016 426.862C468.016 404.942 468.016 383.019 468.016 361.092C467.909 359.558 467.641 358.04 467.216 356.562C468.081 355.866 469.179 355.526 470.286 355.612Z" fill="#F58821"/>
<path d="M326.987 337.792V410.792C325.577 409.902 323.887 409.372 323.117 407.692C322.15 405.847 321.72 403.769 321.877 401.692C321.877 383.152 321.877 364.609 321.877 346.062C321.722 343.987 322.148 341.909 323.107 340.062C324.387 339.312 325.337 337.962 326.987 337.792Z" fill="#C84231"/>
<path d="M522.956 538.412C524.396 541.042 523.506 543.902 523.776 546.642C523.916 548.092 523.206 549.722 524.616 550.932C517.876 558.032 509.906 563.652 502.156 569.522C498.866 567.802 500.356 564.952 500.486 562.432C503.256 559.572 505.926 556.632 508.796 553.892C513.876 549.052 518.216 543.612 522.956 538.412Z" fill="#884D9E"/>
<path d="M320.016 404.612C317.988 402.634 316.403 400.248 315.366 397.612C314.066 393.252 314.096 388.782 314.126 384.292C314.166 375.952 314.166 367.619 314.126 359.292C314.051 356.471 314.471 353.658 315.366 350.982C316.177 348.022 317.786 345.341 320.016 343.232C321.466 344.662 321.286 346.532 321.286 348.302C321.326 365.382 321.326 382.459 321.286 399.532C321.286 401.282 321.466 403.152 320.016 404.612Z" fill="#C22E2F"/>
<path d="M165.986 128.012C164.376 126.402 165.266 124.392 165.156 122.572C164.986 119.422 165.446 116.222 164.316 113.162C169.756 109.112 176.036 106.682 182.126 103.872C185.366 107.322 184.456 111.082 182.976 114.872L165.986 128.012Z" fill="#87537D"/>
<path d="M533.826 243.512H537.706C539.126 244.972 538.946 246.842 538.946 248.622C538.986 266.562 538.986 284.498 538.946 302.432C538.946 304.212 539.126 306.082 537.706 307.542H533.826C532.406 306.082 532.606 304.202 532.596 302.422C532.596 284.488 532.596 266.558 532.596 248.632C532.596 246.852 532.406 244.972 533.826 243.512Z" fill="#C53B30"/>
<path d="M502.846 307.542H498.976C497.556 306.082 497.746 304.212 497.736 302.432C497.736 284.492 497.736 266.555 497.736 248.622C497.736 246.842 497.556 244.972 498.976 243.512H502.846C504.266 244.962 504.086 246.842 504.086 248.622C504.126 266.562 504.126 284.498 504.086 302.432C504.086 304.212 504.266 306.092 502.846 307.542Z" fill="#D86935"/>
<path d="M502.847 307.542V243.542H506.717C508.147 245.002 507.967 246.872 507.957 248.652C507.857 266.842 507.887 285.032 507.877 303.222C507.877 304.772 507.987 306.352 506.717 307.572L502.847 307.542Z" fill="#DE7737"/>
<path d="M359.676 406.782C360.826 405.432 360.296 403.782 360.296 402.322C360.343 381.842 360.363 361.365 360.356 340.892C362.036 342.302 363.836 343.612 364.846 345.662C366.136 359.282 365.136 372.952 365.436 386.592C365.506 390.072 365.436 393.592 365.436 397.032C365.499 399.098 365.085 401.151 364.226 403.032C362.826 404.522 362.276 406.702 360.326 407.712L359.676 406.782Z" fill="#ED963C"/>
<path d="M251.096 334.912C251.096 361.165 251.096 387.415 251.096 413.662H248.766C248.369 413.24 248.065 412.741 247.872 412.195C247.679 411.649 247.602 411.069 247.646 410.492C247.646 404.862 247.226 399.232 247.916 393.612C251.006 390.052 249.056 386.862 247.196 383.672C246.317 382.238 245.899 380.57 245.996 378.892C246.386 372.942 244.886 366.892 247.196 361.032C247.726 359.067 247.726 356.997 247.196 355.032C246.386 348.892 246.876 342.732 246.956 336.582C246.955 336.129 247.048 335.681 247.228 335.267C247.409 334.852 247.674 334.479 248.006 334.172C248.541 334.014 249.108 334 249.65 334.13C250.192 334.26 250.691 334.529 251.096 334.912Z" fill="#E07B38"/>
<path d="M400.597 272.902C400.597 257.942 400.597 242.982 400.597 228.022C403.297 231.502 404.757 235.642 406.667 239.532C407.907 252.532 407.027 265.632 407.197 278.672C407.276 279.313 407.209 279.963 407.001 280.574C406.793 281.186 406.45 281.742 405.997 282.202C403.597 279.432 403.107 275.612 400.597 272.902Z" fill="#CE5332"/>
<path d="M405.996 282.202C405.996 269.335 405.996 256.468 405.996 243.602C405.996 242.242 405.536 240.752 406.616 239.532C408.346 242.792 410.296 245.952 411.436 249.532C412.333 252.218 412.753 255.041 412.676 257.872C412.676 267.522 412.676 277.182 412.676 286.872C412.676 288.772 412.956 290.792 411.406 292.352C408.686 289.412 407.426 285.762 405.996 282.202Z" fill="#D35F34"/>
<path d="M364.236 403.032C364.236 385.032 364.236 367.009 364.236 348.962C364.236 347.832 363.926 346.612 364.876 345.662C366.566 348.292 368.376 350.872 368.876 354.062C370.781 367.478 370.781 381.096 368.876 394.512C367.786 397.612 366.596 400.612 364.236 403.032Z" fill="#F3A13E"/>
<path d="M255.017 412.332C255.017 386.779 255.017 361.229 255.017 335.682L258.117 337.232V411.342C257.243 412.048 256.137 412.401 255.017 412.332Z" fill="#E88A3A"/>
<path d="M182.976 114.892C182.566 111.232 183.746 107.442 182.126 103.892C190.045 99.7429 198.348 96.3706 206.916 93.8218C209.486 95.5718 208.916 97.7318 207.726 99.9718C199.166 104.432 191.206 109.882 182.976 114.892Z" fill="#835882"/>
<path d="M180.597 309.862V214.862C183.097 214.242 182.927 215.862 182.927 217.522C182.927 226.402 182.967 235.282 183.047 244.162C182.997 264.922 182.977 285.672 182.877 306.432C182.897 307.892 183.997 310.482 180.597 309.862Z" fill="#FAAD40"/>
<path d="M269.687 256.682C273.157 255.912 274.577 256.842 274.467 260.842C274.347 265.552 273.407 270.382 275.087 275.042C275.988 276.461 276.466 278.106 276.466 279.787C276.466 281.468 275.988 283.113 275.087 284.532C273.337 288.402 274.317 292.532 274.467 296.422C274.617 300.312 273.147 301.332 269.687 300.572C268.267 299.112 268.467 297.232 268.467 295.452C268.427 284.232 268.427 273.012 268.467 261.792C268.467 260.012 268.267 258.142 269.687 256.682Z" fill="#C94531"/>
<path d="M422.256 313.952C423.196 312.442 423.066 310.752 423.066 309.072C423.066 296.699 423.066 284.325 423.066 271.952C425.146 274.212 425.456 277.512 427.646 279.702V323.032C424.126 321.072 423.876 317.102 422.256 313.952Z" fill="#E27F38"/>
<path d="M411.417 292.272L411.486 249.492C413.616 252.692 415.796 255.872 416.956 259.612C415.606 260.692 416.127 262.212 416.117 263.552C416.067 276.222 416.116 288.892 416.066 301.552C414.114 298.677 412.551 295.557 411.417 292.272Z" fill="#D86835"/>
<path d="M320.017 404.612V343.212L323.107 340.112C323.107 362.638 323.107 385.162 323.107 407.682L320.017 404.612Z" fill="#C53930"/>
<path d="M351.026 334.912V396.832L344.856 395.832C347.123 389.264 348.305 382.37 348.356 375.422C348.582 367.806 347.569 360.203 345.356 352.912C345.026 348.082 345.196 343.242 345.206 338.412C345.206 336.902 345.206 335.332 346.386 334.132C348.066 333.552 349.406 335.072 351.026 334.912Z" fill="#E07A38"/>
<path d="M492.777 243.512H495.877C497.297 244.972 497.117 246.842 497.117 248.622C497.157 266.562 497.157 284.498 497.117 302.432C497.117 304.212 497.297 306.082 495.877 307.542C493.187 308.262 492.717 306.982 492.737 304.542C492.817 289.342 492.737 274.142 492.737 258.952C490.857 253.974 490.871 248.479 492.777 243.512Z" fill="#CC4E32"/>
<path d="M495.876 307.542V243.542H498.976V307.542H495.876Z" fill="#D15A33"/>
<path d="M530.736 307.542C528.586 308.002 527.556 307.642 527.576 304.952C527.696 285.332 527.696 265.715 527.576 246.102C527.576 243.412 528.576 243.052 530.736 243.512C532.156 244.972 531.966 246.842 531.976 248.622C531.976 266.562 531.976 284.499 531.976 302.432C531.966 304.212 532.156 306.082 530.736 307.542Z" fill="#BF1F2E"/>
<path d="M530.736 307.542V243.542H533.826V307.542H530.736Z" fill="#C12A2F"/>
<path d="M537.707 307.542V243.542H540.807C542.227 245.002 542.057 246.872 542.047 248.652C541.957 266.842 542.047 285.032 541.957 303.222C541.957 304.772 542.067 306.362 540.807 307.572L537.707 307.542Z" fill="#CB4931"/>
<path d="M500.487 562.432C502.207 564.522 500.297 567.432 502.157 569.522C489.67 578.965 476.289 587.164 462.207 594.002C475.641 584.325 488.429 573.779 500.487 562.432Z" fill="#8652A1"/>
<path d="M506.716 307.542V243.542H510.596C512.517 248.437 512.517 253.877 510.596 258.772C508.086 259.152 509.106 261.132 509.106 262.432C509.026 276.432 509.106 290.512 509.046 304.552C509.036 306.052 509.686 308.222 506.716 307.542Z" fill="#E48239"/>
<path d="M145.756 255.902H152.756C154.777 263.954 154.777 272.38 152.756 280.432H145.756C143.747 272.379 143.747 263.955 145.756 255.902Z" fill="#DC7336"/>
<path d="M262.756 370.502V340.112C273.246 347.742 272.166 362.862 264.756 369.552C264.239 370.117 263.521 370.458 262.756 370.502Z" fill="#F29F3D"/>
<path d="M540.807 307.542V243.542H543.897C546.117 247.662 544.897 252.022 544.797 256.302C544.027 261.095 544.027 265.979 544.797 270.772C544.887 275.062 546.127 279.442 543.897 283.562C542.527 284.482 543.177 285.892 543.167 287.062C543.087 293.062 543.107 299.062 543.167 305.062C543.157 306.612 543.227 308.192 540.807 307.542Z" fill="#CE5332"/>
<path d="M315.367 350.962V397.612C309.817 386.782 310.107 375.292 311.417 363.612C311.927 359.112 312.597 354.742 315.367 350.962Z" fill="#BF232E"/>
<path d="M262.716 409.012V373.612C264.586 374.072 265.896 375.442 267.406 376.492C268.19 378.11 268.6 379.884 268.606 381.682C268.606 387.835 268.606 393.985 268.606 400.132C268.6 401.93 268.19 403.704 267.406 405.322C266.336 407.202 264.436 407.992 262.716 409.012Z" fill="#F19C3D"/>
<path d="M209.276 256.682C209.518 256.596 209.777 256.566 210.032 256.594C210.287 256.622 210.533 256.707 210.75 256.844C210.968 256.981 211.152 257.165 211.288 257.383C211.424 257.601 211.509 257.846 211.536 258.102C212.146 260.902 212.646 263.722 213.186 266.532C215.246 276.772 214.186 287.122 214.306 297.432C214.351 298.008 214.271 298.587 214.07 299.129C213.87 299.671 213.555 300.163 213.146 300.572C211.146 300.822 211.226 299.412 210.716 298.062C210.056 296.332 210.716 294.292 209.276 292.832C207.836 291.372 208.036 289.752 208.056 288.102C208.166 279.202 207.906 270.302 208.056 261.412C208.076 259.752 207.946 258.012 209.276 256.682Z" fill="#E38038"/>
<path d="M346.376 334.142V353.462C343.436 352.172 339.876 353.272 337.176 351.042C336.746 345.382 335.646 339.682 337.886 334.132L346.376 334.142Z" fill="#D86A35"/>
<path d="M548.596 243.512C550.226 243.312 551.856 243.082 553.246 244.282C554.476 245.492 554.456 247.082 554.466 248.622C554.526 258.542 554.526 268.459 554.466 278.372C554.555 279.928 554.123 281.47 553.236 282.752L548.586 283.532C546.376 279.362 547.696 274.942 547.586 270.612C547.586 270.372 547.586 270.052 547.786 269.892C552.276 265.402 551.856 260.942 547.726 256.482C547.536 252.132 546.376 247.712 548.596 243.512Z" fill="#DC7337"/>
<path d="M471.087 307.542H468.757C467.397 306.202 467.627 304.462 467.627 302.802C467.627 284.622 467.627 266.438 467.627 248.252C467.627 246.592 467.397 244.852 468.757 243.512H471.087C472.457 244.842 472.237 246.582 472.237 248.242C472.237 266.428 472.237 284.618 472.237 302.812C472.237 304.472 472.457 306.212 471.087 307.542Z" fill="#E7893A"/>
<path d="M468.757 243.512V307.512H466.437C465.117 306.152 465.367 304.402 465.367 302.752C465.367 284.579 465.367 266.409 465.367 248.242C465.367 246.592 465.117 244.842 466.437 243.482L468.757 243.512Z" fill="#DD7537"/>
<path d="M461.017 243.512H463.337C464.677 244.872 464.427 246.622 464.427 248.272C464.427 266.438 464.427 284.612 464.427 302.792C464.427 304.432 464.677 306.182 463.337 307.542H461.017C459.697 306.172 459.947 304.422 459.947 302.782C459.947 284.602 459.947 266.428 459.947 248.262C459.947 246.612 459.697 244.872 461.017 243.512Z" fill="#C84331"/>
<path d="M471.086 307.542V243.542C474.086 242.892 473.386 245.062 473.396 246.592C473.396 259.205 473.396 271.822 473.396 284.442C473.396 291.262 473.396 298.092 473.396 304.912C473.416 306.502 473.596 308.162 471.086 307.542Z" fill="#F29F3D"/>
<path d="M247.206 361.032V383.672C245.086 381.422 241.786 382.782 239.476 381.132C237.561 375.97 237.561 370.293 239.476 365.132C242.066 363.782 245.646 364.322 247.206 361.032Z" fill="#DB7036"/>
<path d="M269.686 256.682V300.612H266.596C265.176 299.152 265.376 297.272 265.366 295.492C265.326 284.272 265.326 273.052 265.366 261.832C265.366 260.052 265.176 258.182 266.596 256.722L269.686 256.682Z" fill="#C22D2F"/>
<path d="M266.596 256.682V300.612C264.456 301.072 263.396 300.712 263.426 298.022C263.58 285.122 263.58 272.219 263.426 259.312C263.396 256.612 264.456 256.212 266.596 256.682Z" fill="#BF202E"/>
<path d="M145.757 255.902V280.432H140.337C138.327 272.379 138.327 263.955 140.337 255.902H145.757Z" fill="#D86835"/>
<path d="M217.787 387.612L223.987 386.842C224.483 387.262 224.81 387.848 224.907 388.492C225.417 395.299 225.417 402.135 224.907 408.942C224.827 409.593 224.493 410.186 223.977 410.592C221.617 409.522 219.267 408.432 217.757 406.162C215.852 400.124 215.862 393.644 217.787 387.612Z" fill="#C63B30"/>
<path d="M285.996 274.452C284.736 277.232 284.326 280.012 285.996 282.802C287.456 287.472 287.116 292.282 287.096 297.072C287.166 297.703 287.101 298.341 286.904 298.945C286.708 299.548 286.385 300.103 285.956 300.572H282.856C281.93 298.163 281.501 295.591 281.596 293.012C281.596 284.132 281.596 275.245 281.596 266.352C281.524 263.52 281.947 260.698 282.846 258.012C283.056 255.622 284.786 256.792 285.966 256.682C288.136 262.612 287.376 268.522 285.996 274.452Z" fill="#E27E38"/>
<path d="M207.727 99.9519C207.637 97.8819 208.117 95.7319 206.917 93.8019C218.297 89.1119 230.207 86.3819 242.297 84.1619C230.597 89.1519 218.747 93.6119 207.727 99.9519Z" fill="#7C6088"/>
<path d="M562.536 277.552C561.726 279.192 560.076 279.782 558.656 280.662C557.356 279.472 557.476 277.882 557.476 276.352C557.476 267.619 557.476 258.885 557.476 250.152C557.476 248.622 557.336 247.032 558.616 245.832C559.986 246.702 561.616 247.232 562.536 248.722C563.334 250.192 563.75 251.839 563.746 253.512V272.752C563.756 274.429 563.34 276.08 562.536 277.552Z" fill="#EB913B"/>
<path d="M245.676 414.432H238.676C236.72 408.742 236.72 402.562 238.676 396.872L245.626 395.872C246.052 396.266 246.378 396.755 246.579 397.299C246.781 397.843 246.852 398.426 246.786 399.002C246.486 404.162 248.126 409.452 245.676 414.432Z" fill="#D96B35"/>
<path d="M562.536 277.552V248.722C570.396 254.722 570.596 271.922 562.536 277.552Z" fill="#F4A23E"/>
<path d="M209.276 256.682V292.832H206.176C204.426 290.332 204.986 287.632 205.506 284.942C206.746 281.992 205.146 279.192 204.906 276.342C204.726 274.202 204.346 272.072 204.286 269.912C204.236 266.822 204.286 263.732 204.286 260.652C204.286 259.232 204.286 257.802 205.416 256.652L209.276 256.682Z" fill="#DD7336"/>
<path d="M196.857 265.762C197.357 262.542 197.557 259.232 199.977 256.682C201.297 258.002 201.187 259.682 201.207 261.382C201.317 270.382 201.157 279.322 201.207 288.302C201.207 289.972 201.157 291.652 200.007 293.042C199.007 295.572 200.007 298.942 196.867 300.572C196.462 300.159 196.149 299.664 195.951 299.121C195.753 298.578 195.673 297.999 195.717 297.422C195.817 286.862 194.817 276.252 196.857 265.762Z" fill="#CC4C32"/>
<path d="M234.096 353.462C232.816 355.242 231.016 356.642 230.886 359.192C230.786 361.102 229.606 360.582 228.606 359.662C227.813 358.629 227.399 357.354 227.436 356.052C227.346 350.652 227.356 345.252 227.436 339.842C227.406 338.544 227.818 337.274 228.606 336.242C229.377 335.661 230.257 335.244 231.194 335.015C232.131 334.786 233.105 334.751 234.056 334.912C234.541 335.423 234.9 336.039 235.105 336.713C235.31 337.386 235.355 338.098 235.236 338.792C234.946 343.692 236.336 348.722 234.096 353.462Z" fill="#CE5332"/>
<path d="M234.056 413.662C232.155 413.701 230.276 413.242 228.606 412.332C226.606 403.679 226.606 394.684 228.606 386.032C230.336 389.122 231.056 392.802 234.066 395.112C235.998 401.145 235.995 407.631 234.056 413.662Z" fill="#CE5332"/>
<path d="M553.196 282.752V244.282C553.736 244.131 554.306 244.123 554.85 244.26C555.394 244.397 555.892 244.673 556.296 245.062C557.506 246.282 557.446 247.842 557.446 249.382C557.446 258.615 557.446 267.842 557.446 277.062C557.446 278.622 557.446 280.152 556.326 281.422C555.596 282.502 554.126 282.032 553.196 282.752Z" fill="#E27E38"/>
<path d="M282.836 258.012C282.836 272.198 282.836 286.385 282.836 300.572C281.314 298.862 280.242 296.8 279.716 294.572C277.802 284.532 277.802 274.221 279.716 264.182C280.334 261.937 281.395 259.839 282.836 258.012Z" fill="#DC7236"/>
<path d="M228.597 386.032V412.332C226.817 412.332 225.417 411.412 223.977 410.562V386.812C225.527 386.472 227.217 387.042 228.597 386.032Z" fill="#CA4831"/>
<path d="M140.337 255.902V280.432L135.727 280.652V255.652L140.337 255.902Z" fill="#D46034"/>
<path d="M152.727 280.432V255.902L156.527 255.732C157.527 256.452 157.377 257.522 157.377 258.532V277.802C157.377 278.802 157.537 279.892 156.527 280.602L152.727 280.432Z" fill="#E17C38"/>
<path d="M267.406 405.352V376.522C275.296 383.612 274.046 399.402 267.406 405.352Z" fill="#F6A73E"/>
<path d="M217.787 387.612C217.787 393.792 217.787 399.975 217.787 406.162C212.677 402.362 210.677 396.682 208.697 391.012C208.167 389.502 208.817 388.252 210.357 388.342C212.887 388.452 215.287 387.612 217.787 387.612Z" fill="#C22C2F"/>
<path d="M196.856 265.762V300.572H192.986C190.726 296.932 191.886 292.922 191.876 289.082C191.918 286.181 192.28 283.293 192.956 280.472C193.526 275.372 195.266 270.612 196.856 265.762Z" fill="#C73E30"/>
<path d="M200.017 293.042V256.682H203.117C204.437 258.022 204.237 259.742 204.267 261.392C204.337 266.512 204.177 271.642 204.217 276.762C204.477 279.452 203.327 282.092 203.977 284.762C204.117 287.482 204.977 290.292 203.117 292.762L200.017 293.042Z" fill="#D15833"/>
<path d="M213.146 300.612V266.612C215.031 271.343 216.331 276.286 217.017 281.332C218.108 286.506 218.495 291.804 218.167 297.082C218.222 297.727 218.145 298.376 217.94 298.99C217.735 299.604 217.408 300.169 216.977 300.652L213.146 300.612Z" fill="#EA8F3B"/>
<path d="M368.876 394.512V354.062C370.876 356.972 371.136 360.452 371.586 363.712C373.036 374.142 373.186 384.552 368.876 394.512Z" fill="#F7A93F"/>
<path d="M217.766 343.982C218.766 340.982 221.766 340.242 223.966 338.562C224.344 338.913 224.642 339.341 224.84 339.817C225.039 340.293 225.133 340.806 225.116 341.322C225.316 346.435 225.316 351.549 225.116 356.662C225.126 357.178 225.032 357.69 224.837 358.168C224.643 358.646 224.353 359.08 223.986 359.442C222.116 358.132 219.566 359.602 217.796 357.892C217.156 353.278 217.146 348.599 217.766 343.982Z" fill="#C63C30"/>
<path d="M223.986 359.442C223.986 352.482 223.986 345.522 223.986 338.562C225.325 337.428 226.916 336.632 228.626 336.242V359.662L223.986 359.442Z" fill="#CA4731"/>
<path d="M459.467 307.542C457.787 307.922 457.927 306.762 457.927 305.722V245.332C457.927 244.332 457.787 243.132 459.467 243.512C460.467 244.712 460.227 246.182 460.237 247.572C460.237 266.239 460.237 284.875 460.237 303.482C460.227 304.872 460.517 306.342 459.467 307.542Z" fill="#BF1E2E"/>
<path d="M459.466 307.542V243.542H461.016V307.542H459.466Z" fill="#C22B2F"/>
<path d="M466.436 243.512V307.512H464.886C463.886 306.302 464.136 304.832 464.136 303.452C464.136 284.785 464.136 266.149 464.136 247.542C464.136 246.162 463.856 244.692 464.886 243.482L466.436 243.512Z" fill="#D66434"/>
<path d="M464.886 243.512V307.512H463.336V243.512H464.886Z" fill="#CF5432"/>
<path d="M279.736 264.202V294.612L275.086 284.552V275.062C275.596 271.002 278.316 267.872 279.736 264.202Z" fill="#D76534"/>
<path d="M243.346 299.022C242.456 298.232 240.976 298.822 240.226 297.692C239.41 296.235 239.016 294.58 239.086 292.912C239.086 282.165 239.086 271.412 239.086 260.652C238.926 258.983 239.335 257.309 240.246 255.902L242.546 254.902C244.766 259.602 244.166 264.312 242.616 269.032C240.616 274.502 240.196 279.902 243.386 285.122C244.986 289.762 245.336 294.392 243.346 299.022Z" fill="#D46034"/>
<path d="M240.257 255.902V297.692L237.937 296.142C237.037 294.427 236.641 292.492 236.797 290.562C236.797 281.315 236.797 272.065 236.797 262.812C236.644 260.882 237.039 258.947 237.937 257.232L240.257 255.902Z" fill="#CF5332"/>
<path d="M232.486 264.202C233.666 262.752 233.686 260.522 235.586 259.562C236.866 260.742 236.756 262.322 236.756 263.842C236.756 272.415 236.756 280.979 236.756 289.532C236.756 291.062 236.866 292.632 235.586 293.822C233.646 292.532 233.176 290.402 232.486 288.402C230.796 280.424 230.796 272.18 232.486 264.202Z" fill="#C4342F"/>
<path d="M248.007 334.142C248.007 339.612 248.007 345.142 248.007 350.572C248.16 352.096 247.875 353.633 247.187 355.002L243.347 351.692C241.397 346.001 241.397 339.823 243.347 334.132L248.007 334.142Z" fill="#DC7337"/>
<path d="M239.476 365.122V381.122H234.056C232.129 375.963 232.129 370.281 234.056 365.122H239.476Z" fill="#D46034"/>
<path d="M235.597 293.822V259.612L237.917 257.282V296.192L235.597 293.822Z" fill="#CA4631"/>
<path d="M337.856 334.132C337.856 340.059 337.856 345.985 337.856 351.912C337.955 353.361 337.711 354.813 337.145 356.151C336.579 357.489 335.706 358.674 334.596 359.612C333.236 356.432 334.096 353.102 333.986 349.852C333.826 344.852 333.986 339.922 333.986 334.952C334.515 334.509 335.145 334.203 335.819 334.06C336.494 333.917 337.193 333.942 337.856 334.132Z" fill="#D15A33"/>
<path d="M234.097 353.462C234.097 347.282 234.097 341.099 234.097 334.912C235.487 333.692 237.097 333.912 238.747 334.132C240.674 339.635 240.674 345.629 238.747 351.132C237.327 352.182 235.207 351.802 234.097 353.462Z" fill="#D45F34"/>
<path d="M556.336 281.422C556.336 269.302 556.336 257.182 556.336 245.062C557.336 244.652 557.916 245.472 558.656 245.832V280.662C558.146 281.702 557.106 281.162 556.336 281.422Z" fill="#E68739"/>
<path d="M284.406 412.892C281.536 413.582 280.246 412.892 280.406 409.522C280.716 404.627 280.716 399.717 280.406 394.822C280.206 391.482 281.496 390.762 284.406 391.452C284.809 391.87 285.122 392.366 285.326 392.91C285.531 393.453 285.623 394.032 285.596 394.612C285.723 399.639 285.723 404.665 285.596 409.692C285.628 410.278 285.539 410.865 285.334 411.416C285.129 411.966 284.814 412.469 284.406 412.892Z" fill="#C12A2F"/>
<path d="M292.146 412.882H288.276C287.88 412.455 287.574 411.953 287.378 411.404C287.182 410.856 287.1 410.273 287.136 409.692C286.996 404.672 286.996 399.652 287.136 394.632C287.1 394.051 287.182 393.468 287.378 392.92C287.574 392.371 287.88 391.868 288.276 391.442H292.146C292.548 391.862 292.858 392.36 293.058 392.906C293.257 393.451 293.342 394.032 293.306 394.612C293.446 399.639 293.446 404.662 293.306 409.682C293.345 410.267 293.262 410.853 293.062 411.404C292.863 411.955 292.551 412.458 292.146 412.882Z" fill="#D45F34"/>
<path d="M288.276 391.452V412.892H284.406V391.452H288.276Z" fill="#CB4931"/>
<path d="M488.127 258.742C482.707 259.022 482.707 259.022 482.707 253.832V248.422C482.707 243.232 482.707 243.232 488.127 243.512C490.047 248.407 490.047 253.847 488.127 258.742Z" fill="#C0262E"/>
<path d="M234.057 413.662V395.112L238.667 396.872V414.432L234.057 413.662Z" fill="#D35E34"/>
<path d="M238.747 351.142C238.747 345.475 238.747 339.809 238.747 334.142H243.397V351.702C241.717 352.372 240.377 350.532 238.747 351.142Z" fill="#D86B36"/>
<path d="M488.906 456.262C482.906 456.262 476.826 456.332 470.776 456.402C469.136 456.402 468.026 455.962 468.006 454.062C468.006 451.802 469.706 452.562 470.776 452.552C476.776 452.552 482.866 452.552 488.906 452.652C489.146 452.888 489.337 453.168 489.467 453.478C489.597 453.788 489.664 454.121 489.664 454.457C489.664 454.793 489.597 455.126 489.467 455.436C489.337 455.746 489.146 456.027 488.906 456.262Z" fill="#F6901E"/>
<path d="M488.126 258.742V243.512H492.776V258.962L488.126 258.742Z" fill="#C63E30"/>
<path d="M514.466 243.512C517.986 242.712 519.676 243.772 519.166 247.692C518.866 249.972 518.866 252.282 519.166 254.562C519.676 258.482 517.986 259.562 514.466 258.742C512.567 253.843 512.567 248.411 514.466 243.512Z" fill="#F6A63E"/>
<path d="M217.766 343.982C218.966 348.541 218.966 353.333 217.766 357.892C215.396 358.652 213.356 357.032 211.076 357.162C212.086 352.012 213.756 347.402 217.766 343.982Z" fill="#C22D2F"/>
<path d="M299.897 412.882H296.807C296.457 412.504 296.188 412.06 296.017 411.575C295.845 411.09 295.773 410.575 295.807 410.062C295.727 404.795 295.727 399.529 295.807 394.262C295.773 393.749 295.845 393.234 296.017 392.749C296.188 392.264 296.457 391.819 296.807 391.442H299.897C300.267 391.803 300.558 392.238 300.749 392.719C300.94 393.199 301.028 393.715 301.007 394.232C301.093 399.512 301.093 404.792 301.007 410.072C301.03 410.592 300.944 411.111 300.752 411.596C300.561 412.08 300.269 412.518 299.897 412.882Z" fill="#EC923B"/>
<path d="M292.146 412.882V391.462H295.246C296.376 392.772 296.086 394.382 295.996 395.862C295.636 401.532 296.996 407.272 295.246 412.862L292.146 412.882Z" fill="#DD7537"/>
<path d="M483.506 344.952C480.756 346.422 479.416 345.952 479.576 342.482C479.746 338.802 479.576 335.102 479.636 331.412C479.636 330.612 479.286 329.412 480.696 329.412C481.776 329.412 483.436 328.602 483.506 330.792C484.077 335.495 484.077 340.249 483.506 344.952Z" fill="#F68F1E"/>
<path d="M234.056 365.122V381.122C231.186 381.812 229.806 381.052 230.126 377.732C230.416 374.659 230.416 371.565 230.126 368.492C229.806 365.182 231.186 364.432 234.056 365.122Z" fill="#D05633"/>
<path d="M548.526 269.612C548.526 274.239 548.526 278.875 548.526 283.522H543.896V270.612C545.196 269.142 546.686 268.552 548.526 269.612Z" fill="#D66434"/>
<path d="M245.676 414.432V395.882L247.946 393.612C249.596 395.362 248.696 397.512 248.756 399.462C248.896 404.192 248.756 408.932 248.756 413.662C247.646 413.532 246.896 414.912 245.676 414.432Z" fill="#DF7738"/>
<path d="M548.596 243.512V257.202C547.847 257.614 546.98 257.762 546.136 257.62C545.292 257.479 544.52 257.056 543.946 256.422V243.512H548.596Z" fill="#D66434"/>
<path d="M192.976 280.472V300.572L192.596 300.632C187.076 300.852 187.036 300.842 188.506 295.632C189.976 290.422 191.496 285.522 192.976 280.472Z" fill="#C12A2F"/>
<path d="M514.467 243.512V258.742H510.597V243.512H514.467Z" fill="#EC933C"/>
<path d="M217.017 300.612V281.292C219.627 286.992 220.167 293.292 222.287 299.162C222.697 300.292 221.877 300.752 220.797 300.722L217.017 300.612Z" fill="#F4A23E"/>
<path d="M529.966 425.272C525.776 424.162 523.526 420.352 520.166 418.072C519.516 417.632 519.626 416.142 520.406 415.272C520.783 414.823 521.315 414.531 521.897 414.455C522.478 414.379 523.067 414.524 523.546 414.862C525.796 416.402 527.856 418.202 529.996 419.862C530.916 421.692 531.526 423.492 529.966 425.272Z" fill="#F68E1F"/>
<path d="M440.137 422.402C438.387 424.122 437.337 426.622 434.407 426.992C431.477 427.362 430.637 425.232 431.857 423.672C434.117 420.792 436.187 417.402 440.107 416.242C441.817 418.282 441.177 420.342 440.137 422.402Z" fill="#F6901E"/>
<path d="M443.216 357.892C439.796 355.762 438.036 352.172 435.736 349.102C435.324 348.51 435.153 347.783 435.259 347.069C435.365 346.355 435.74 345.709 436.306 345.262C437.726 344.192 438.696 345.262 439.516 346.262C440.806 347.802 442.006 349.412 443.246 351.002C443.926 353.282 445.146 355.612 443.216 357.892Z" fill="#F6901E"/>
<path d="M469.456 447.062H471.096H480.396L481.926 447.122C482.17 447.365 482.364 447.655 482.496 447.973C482.628 448.291 482.696 448.632 482.696 448.977C482.696 449.322 482.628 449.663 482.496 449.981C482.364 450.3 482.17 450.589 481.926 450.832C477.926 450.832 474.006 450.932 470.046 450.942C469.246 450.942 468.046 451.282 468.046 449.882C468.066 448.792 467.276 447.142 469.456 447.062Z" fill="#F6931D"/>
<path d="M526.126 351.912C524.636 353.472 523.126 355.042 521.656 356.592C521.194 357.041 520.596 357.325 519.956 357.399C519.316 357.474 518.669 357.334 518.116 357.002C517.026 356.392 517.186 354.502 517.786 353.902C520.376 351.262 522.176 347.672 526.096 346.532C527.656 348.312 527.046 350.112 526.126 351.912Z" fill="#F68F1E"/>
<path d="M434.686 389.612C431.886 389.662 429.086 389.692 426.276 389.752C424.656 389.752 423.076 389.752 423.096 387.502C423.116 385.252 424.776 385.172 426.276 385.142C429.076 385.062 431.886 385.192 434.686 385.232C435.259 385.817 435.58 386.603 435.58 387.422C435.58 388.241 435.259 389.027 434.686 389.612Z" fill="#F68F1E"/>
<path d="M299.896 412.882V391.462C301.456 391.112 302.266 391.462 302.246 393.322C302.173 399.222 302.173 405.119 302.246 411.012C302.266 412.852 301.456 413.232 299.896 412.882Z" fill="#F5A43E"/>
<path d="M537.717 389.612C535.167 389.662 532.617 389.692 530.077 389.752C528.447 389.752 526.877 389.752 526.897 387.502C526.917 385.252 528.577 385.182 530.077 385.142C532.617 385.062 535.167 385.192 537.717 385.232C538.285 385.819 538.603 386.605 538.603 387.422C538.603 388.239 538.285 389.025 537.717 389.612Z" fill="#F6901E"/>
<path d="M232.486 264.202V288.402C230.566 287.242 230.616 284.942 230.486 283.402C230.186 276.932 228.906 270.282 232.486 264.202Z" fill="#BF232E"/>
<path d="M251.096 253.612C253.766 253.282 255.176 254.212 255.006 257.162C254.846 259.832 255.006 262.522 255.006 265.462C253.646 264.902 252.176 265.622 251.116 264.462C250.249 262.786 249.795 260.927 249.792 259.039C249.788 257.152 250.235 255.291 251.096 253.612Z" fill="#F3A13E"/>
<path d="M485.816 460.132C482.236 460.132 478.646 460.132 475.056 460.282C473.186 460.352 471.936 459.642 470.826 457.282H485.826C486.014 457.468 486.164 457.691 486.265 457.936C486.367 458.181 486.419 458.444 486.418 458.709C486.417 458.974 486.363 459.236 486.26 459.481C486.157 459.725 486.006 459.946 485.816 460.132Z" fill="#F6901E"/>
<path d="M252.687 299.232C251.537 300.512 250.097 299.772 248.777 299.802C247.862 298.145 247.382 296.284 247.382 294.392C247.382 292.5 247.862 290.638 248.777 288.982C250.167 289.592 251.257 288.102 252.607 288.442C253.484 290.102 253.949 291.949 253.963 293.827C253.977 295.705 253.539 297.559 252.687 299.232Z" fill="#ED943C"/>
<path d="M288.276 256.672H294.106C292.736 261.402 290.316 265.512 288.326 269.812C287.401 267.747 286.919 265.51 286.91 263.247C286.902 260.984 287.367 258.744 288.276 256.672Z" fill="#F09B3D"/>
<path d="M242.596 269.032C242.596 264.319 242.573 259.609 242.526 254.902C243.286 253.792 244.746 254.352 245.646 253.582C247.646 257.692 247.306 261.812 245.646 265.932L242.596 269.032Z" fill="#DB7136"/>
<path d="M288.326 288.222C290.706 291.222 291.326 295.152 293.276 298.392C294.276 299.982 293.556 300.772 291.746 300.692C290.596 300.642 289.436 300.612 288.286 300.572C287.394 298.635 286.935 296.526 286.941 294.393C286.948 292.259 287.421 290.153 288.326 288.222Z" fill="#F09A3D"/>
<path d="M203.116 277.552V256.682H205.436C205.436 261.349 205.436 265.989 205.436 270.602C204.935 272.02 204.695 273.518 204.726 275.022C204.656 276.142 204.736 277.382 203.116 277.552Z" fill="#D66434"/>
<path d="M288.277 256.672C288.277 261.052 288.293 265.432 288.327 269.812C287.963 271.533 287.16 273.132 285.997 274.452V256.682L288.277 256.672Z" fill="#E88B3A"/>
<path d="M288.327 288.222C288.327 292.342 288.327 296.458 288.327 300.572H285.997V282.802C286.777 284.612 287.597 286.412 288.327 288.222Z" fill="#E98C3A"/>
<path d="M248.816 288.982C248.816 292.592 248.816 296.192 248.816 299.802H245.716C244.056 295.672 243.786 291.552 245.716 287.442L248.816 288.982Z" fill="#E38039"/>
<path d="M245.716 265.932C245.716 261.812 245.716 257.695 245.716 253.582H248.816C249.677 255.252 250.126 257.103 250.126 258.982C250.126 260.861 249.677 262.712 248.816 264.382L245.716 265.932Z" fill="#E37F39"/>
<path d="M295.247 412.882V391.462H296.807V412.902L295.247 412.882Z" fill="#E48339"/>
<path d="M245.716 287.442C245.716 291.562 245.716 295.682 245.716 299.802L243.386 299.022C243.386 294.389 243.403 289.755 243.436 285.122L245.716 287.442Z" fill="#DC7237"/>
<path d="M481.937 450.842C481.937 449.602 481.937 448.362 481.937 447.132H489.677C490.168 447.628 490.444 448.298 490.444 448.997C490.444 449.695 490.168 450.366 489.677 450.862L481.937 450.842Z" fill="#F58621"/>
<path d="M203.076 292.832V284.612C203.257 284.372 203.491 284.177 203.76 284.042C204.029 283.908 204.326 283.838 204.626 283.838C204.927 283.838 205.223 283.908 205.492 284.042C205.761 284.177 205.995 284.372 206.176 284.612V292.872L203.076 292.832Z" fill="#D76835"/>
<path d="M252.687 299.232C252.687 295.642 252.687 292.042 252.687 288.442C253.437 288.782 254.997 286.762 255.007 289.232C255.007 292.012 254.957 294.782 255.007 297.552C255.027 299.352 253.757 299.092 252.687 299.232Z" fill="#F5A63E"/>
<path d="M248.816 264.382C248.816 260.782 248.816 257.182 248.816 253.582H251.136C251.136 257.182 251.136 260.785 251.136 264.392L248.816 264.382Z" fill="#EA8F3B"/>
<path d="M488.906 456.262V452.612C489.906 452.612 490.956 452.472 491.976 452.492C492.996 452.512 494.406 452.092 494.346 454.022C494.286 455.622 493.546 456.372 491.976 456.342C490.956 456.362 489.926 456.302 488.906 456.262Z" fill="#F26D27"/>
<path d="M537.716 389.612V385.232C539.716 384.962 541.656 384.822 541.596 387.812C541.536 391.202 539.146 389.342 537.716 389.612Z" fill="#F37126"/>
<path d="M489.687 450.842C489.687 449.602 489.687 448.352 489.687 447.112H492.897C494.097 447.672 494.827 448.702 494.197 449.852C493.167 451.612 491.287 450.892 489.687 450.842Z" fill="#F26C28"/>
<path d="M443.216 357.892V350.972C443.851 351.852 444.543 352.691 445.286 353.482C445.775 353.878 446.117 354.425 446.26 355.037C446.403 355.649 446.339 356.291 446.076 356.862C445.596 358.152 444.386 358.132 443.216 357.892Z" fill="#F26F27"/>
<path d="M485.816 460.132V457.302C485.946 457.302 486.086 457.212 486.196 457.242C487.596 457.642 490.196 455.932 490.266 458.322C490.356 461.262 487.596 460.032 485.816 460.132Z" fill="#F27027"/>
<path d="M434.687 389.612V385.232C436.787 384.812 437.777 385.572 437.817 387.812C437.877 390.552 436.087 389.672 434.687 389.612Z" fill="#F26E27"/>
<path d="M440.136 422.402V416.242C444.516 416.012 442.136 418.982 442.046 420.632C441.996 421.242 440.796 421.812 440.136 422.402Z" fill="#F37726"/>
<path d="M483.506 344.952V330.802C484.756 335.436 484.756 340.318 483.506 344.952Z" fill="#F16029"/>
<path d="M529.966 425.272V419.902C530.778 420.269 531.444 420.896 531.858 421.684C532.273 422.472 532.413 423.375 532.256 424.252C532.036 425.942 530.886 425.282 529.966 425.272Z" fill="#F26C27"/>
<path d="M526.126 351.912V346.532C527.046 346.532 528.196 345.872 528.446 347.532C528.608 348.416 528.468 349.33 528.047 350.124C527.626 350.919 526.949 351.549 526.126 351.912Z" fill="#F37327"/>
<path d="M356.356 549.342C355.476 548.852 354.676 548.462 353.946 547.972C342.386 540.312 330.866 532.592 319.266 524.972C317.416 523.762 317.376 522.832 318.516 521.142C330.876 502.862 343.19 484.552 355.456 466.212C356.626 464.462 357.536 464.712 358.976 465.672C370.596 473.462 382.256 481.192 393.886 488.962C395.196 489.832 396.006 490.382 394.656 492.372C382.306 510.652 370.166 529.072 357.906 547.372C357.476 548.072 357.416 549.222 356.356 549.342Z" fill="#FEFEFE"/>
<path d="M340.177 396.872L342.387 396.742C342.247 399.962 344.807 398.742 346.387 399.192C348.281 403.829 348.281 409.025 346.387 413.662C344.477 415.152 342.297 414.472 340.187 414.432C338.234 408.742 338.23 402.564 340.177 396.872Z" fill="#D96C36"/>
<path d="M340.176 396.872V414.432C338.875 414.747 337.503 414.558 336.336 413.902L335.546 413.662C335.546 408.212 335.546 402.762 335.546 397.302C335.546 396.082 335.156 394.742 336.166 393.672C337.326 394.982 338.186 396.612 340.176 396.872Z" fill="#D56234"/>
<path d="M346.376 413.662C346.376 408.842 346.376 404.019 346.376 399.192C348.086 399.572 350.016 399.452 351.046 401.312C351.94 403.11 352.405 405.09 352.405 407.097C352.405 409.104 351.94 411.084 351.046 412.882C349.476 413.192 348.076 414.282 346.376 413.662Z" fill="#DF7838"/>
<path d="M351.026 412.882V401.312C355.026 402.782 355.756 406.562 357.076 409.922C355.317 411.365 353.246 412.379 351.026 412.882Z" fill="#E48239"/>
<path d="M341.737 474.252C339.607 473.932 338.077 472.902 338.057 471.252C338.112 470.475 338.446 469.744 338.997 469.193C339.548 468.642 340.279 468.308 341.057 468.252C341.439 468.216 341.825 468.26 342.19 468.38C342.555 468.5 342.891 468.695 343.178 468.951C343.464 469.207 343.695 469.52 343.854 469.869C344.014 470.219 344.1 470.598 344.107 470.982C344.117 472.892 342.787 473.532 341.737 474.252Z" fill="#FEFEFE"/>
<path d="M349.516 462.462C349.376 464.272 348.456 465.612 346.746 465.582C346.359 465.575 345.978 465.487 345.627 465.322C345.276 465.158 344.965 464.921 344.712 464.627C344.46 464.333 344.273 463.989 344.163 463.618C344.054 463.246 344.024 462.856 344.076 462.472C344.038 461.76 344.28 461.061 344.752 460.526C345.223 459.992 345.885 459.663 346.596 459.612C348.346 459.492 349.276 460.782 349.516 462.462Z" fill="#FEFEFE"/>
<path d="M335.116 483.532C333.166 483.532 331.826 482.532 331.776 480.882C331.726 479.232 332.926 478.112 334.776 478.092C335.495 478.024 336.211 478.241 336.772 478.695C337.333 479.149 337.693 479.805 337.776 480.522C337.986 482.322 336.596 483.152 335.116 483.532Z" fill="#FEFEFE"/>
<path d="M363.367 485.752C363.777 489.752 365.777 493.142 367.017 496.832C367.397 497.972 367.657 499.132 366.597 500.012C364.927 501.362 365.107 499.732 364.877 498.852C364.787 498.482 364.557 498.322 364.377 498.622C362.907 501.092 359.707 502.122 358.837 504.972C358.187 507.102 357.757 509.262 355.237 509.802C353.557 510.152 354.347 511.352 354.127 512.212C353.637 514.052 353.397 516.072 350.757 516.052C349.337 516.052 349.947 516.832 349.847 517.752C349.567 520.272 348.677 522.972 345.457 522.832C345.067 522.843 344.68 522.775 344.317 522.634C343.954 522.493 343.623 522.28 343.343 522.009C343.064 521.738 342.841 521.414 342.689 521.055C342.537 520.697 342.458 520.312 342.457 519.922C342.457 517.852 342.597 515.762 344.937 515.392C346.797 515.092 347.347 514.982 346.577 512.942C346.257 512.092 347.187 509.832 347.877 509.682C352.547 508.622 350.247 501.162 355.877 501.212C355.167 499.422 355.687 498.132 356.817 496.492C358.337 494.292 359.157 493.172 361.027 496.062C361.477 496.742 362.817 496.842 364.157 497.362C363.267 494.732 362.467 492.362 361.647 489.942C361.367 489.112 361.067 488.282 360.767 487.462C360.227 485.982 359.597 484.032 361.157 483.302C363.337 482.302 361.897 485.632 363.437 485.822L363.367 485.752Z" fill="#662D90"/>
<path d="M363.426 485.822C364.996 482.212 368.516 480.822 371.596 479.152C373.086 478.342 373.676 480.222 373.456 481.542C373.016 484.132 372.406 486.712 371.756 489.262C371.646 489.722 371.276 490.472 370.416 490.042C369.556 489.612 368.596 489.512 368.866 488.262C369.096 487.172 369.396 486.102 369.746 484.722C367.396 484.512 365.746 488.142 363.366 485.722L363.426 485.822Z" fill="#662D90"/>
<path d="M340.967 526.072C341.431 525.674 341.934 525.322 342.467 525.022C343.867 524.452 345.567 522.522 346.707 524.722C347.707 526.582 345.027 526.622 344.127 527.572C343.037 528.732 341.397 529.362 340.177 530.442C338.087 532.282 337.297 531.442 337.097 529.132C336.837 526.132 338.517 523.532 338.727 520.622C338.787 519.732 339.647 519.872 340.177 520.312C340.707 520.752 342.317 520.672 341.437 522.052C340.557 523.432 341.147 524.512 340.967 526.072Z" fill="#662D90"/>
<path d="M345.437 518.362C345.837 518.052 346.067 517.742 346.337 517.692C347.047 517.582 347.157 518.172 347.107 518.642C347.107 518.952 347.417 519.812 346.527 519.482C346.137 519.332 345.877 518.832 345.437 518.362Z" fill="#FEFEFE"/>
</svg>
